# Blender 5.0.0 Release Candidate
# www.blender.org
mtllib Key.mtl
o Cube.001_0
v 0.660241 -0.249650 0.069109
v 0.960237 -0.249650 0.066326
v 0.959736 -0.250348 -0.083670
v 0.659741 -0.250348 -0.080887
v 0.659741 -0.250348 -0.080887
v 0.959736 -0.250348 -0.083670
v 0.959739 -0.450346 -0.082738
v 0.659744 -0.450346 -0.079955
v 0.659744 -0.450346 -0.079955
v 0.959739 -0.450346 -0.082738
v 0.960240 -0.449647 0.067258
v 0.660244 -0.449647 0.070041
v 0.960237 -0.249650 0.066326
v 0.660241 -0.249650 0.069109
v 0.660244 -0.449647 0.070041
v 0.960240 -0.449647 0.067258
v 0.660244 -0.449647 0.070041
v 0.660241 -0.249650 0.069109
v 0.659741 -0.250348 -0.080887
v 0.659744 -0.450346 -0.079955
v 0.959739 -0.450346 -0.082738
v 0.959736 -0.250348 -0.083670
v 0.960237 -0.249650 0.066326
v 0.960240 -0.449647 0.067258
v 0.690161 -0.449764 0.044764
v 0.780159 -0.449764 0.043929
v 0.779825 -0.450230 -0.056069
v 0.689827 -0.450230 -0.055234
v 0.689827 -0.450230 -0.055234
v 0.779825 -0.450230 -0.056069
v 0.779828 -0.650228 -0.055137
v 0.689830 -0.650228 -0.054302
v 0.689830 -0.650228 -0.054302
v 0.779828 -0.650228 -0.055137
v 0.780162 -0.649761 0.044861
v 0.690163 -0.649761 0.045696
v 0.690163 -0.649761 0.045696
v 0.780162 -0.649761 0.044861
v 0.780159 -0.449764 0.043929
v 0.690161 -0.449764 0.044764
v 0.689827 -0.450230 -0.055234
v 0.689830 -0.650228 -0.054302
v 0.690163 -0.649761 0.045696
v 0.690161 -0.449764 0.044764
v 0.779828 -0.650228 -0.055137
v 0.779825 -0.450230 -0.056069
v 0.780159 -0.449764 0.043929
v 0.780162 -0.649761 0.044861
v -0.480326 -0.200466 -0.095546
v 1.019651 -0.200465 -0.109459
v 1.019657 -0.219965 -0.107446
v -0.480320 -0.219965 -0.093533
v 1.019677 -0.238698 -0.101669
v -0.480300 -0.238698 -0.087756
v 1.019708 -0.255944 -0.092348
v -0.480269 -0.255944 -0.078434
v 1.019750 -0.271039 -0.079841
v -0.480228 -0.271039 -0.065928
v 1.019800 -0.283404 -0.064629
v -0.480177 -0.283404 -0.050716
v 1.019858 -0.292565 -0.047298
v -0.480119 -0.292565 -0.033385
v 1.019921 -0.298169 -0.028513
v -0.480056 -0.298169 -0.014600
v 1.019986 -0.299999 -0.008995
v -0.479991 -0.299999 0.004918
v 1.020051 -0.297987 0.010504
v -0.479926 -0.297987 0.024417
v 1.020114 -0.292208 0.029236
v -0.479864 -0.292208 0.043149
v 1.020171 -0.282887 0.046482
v -0.479806 -0.282887 0.060395
v 1.020222 -0.270380 0.061577
v -0.479756 -0.270380 0.075490
v 1.020263 -0.255169 0.073943
v -0.479714 -0.255169 0.087856
v 1.020294 -0.237836 0.083103
v -0.479684 -0.237836 0.097016
v 1.020312 -0.219051 0.088705
v -0.479665 -0.219051 0.102618
v 1.020319 -0.199533 0.090536
v -0.479659 -0.199533 0.104449
v 1.020312 -0.180033 0.088523
v -0.479666 -0.180033 0.102436
v 1.020293 -0.161301 0.082746
v -0.479685 -0.161301 0.096659
v 1.020261 -0.144055 0.073425
v -0.479716 -0.144055 0.087338
v 1.020220 -0.128960 0.060918
v -0.479758 -0.128960 0.074831
v 1.020169 -0.116595 0.045707
v -0.479808 -0.116595 0.059620
v 1.020111 -0.107434 0.028375
v -0.479866 -0.107434 0.042288
v 1.020048 -0.101830 0.009590
v -0.479929 -0.101830 0.023503
v 1.019983 -0.100001 -0.009928
v -0.479994 -0.100001 0.003985
v 1.019918 -0.102013 -0.029427
v -0.480059 -0.102013 -0.015514
v 1.019855 -0.107791 -0.048160
v -0.480122 -0.107791 -0.034247
v 1.019798 -0.117113 -0.065405
v -0.480179 -0.117113 -0.051492
v 1.019747 -0.129619 -0.080500
v -0.480230 -0.129619 -0.066587
v 1.019706 -0.144830 -0.092865
v -0.480271 -0.144831 -0.078952
v 1.019675 -0.162163 -0.102025
v -0.480301 -0.162163 -0.088112
v 1.019657 -0.180948 -0.107628
v -0.480320 -0.180948 -0.093715
v -0.719981 -0.699995 0.009008
v -0.680824 -0.695717 0.008625
v -0.681706 -0.682202 0.058572
v -0.719814 -0.686364 0.058945
v -0.684451 -0.645741 0.095031
v -0.719692 -0.649591 0.095376
v -0.688323 -0.596107 0.108233
v -0.719649 -0.599529 0.108539
v -0.692284 -0.546598 0.094641
v -0.719694 -0.549592 0.094909
v -0.695273 -0.510479 0.057897
v -0.719817 -0.513160 0.058137
v -0.696490 -0.497429 0.007846
v -0.719984 -0.499997 0.008076
v -0.695607 -0.510945 -0.042101
v -0.720151 -0.513627 -0.041860
v -0.692862 -0.547405 -0.078559
v -0.720272 -0.550399 -0.078291
v -0.688991 -0.597040 -0.091761
v -0.720317 -0.600461 -0.091455
v -0.685029 -0.646549 -0.078170
v -0.720271 -0.650398 -0.077825
v -0.682040 -0.682667 -0.041426
v -0.720148 -0.686830 -0.041053
v -0.642336 -0.682957 0.008209
v -0.644250 -0.669783 0.058167
v -0.649814 -0.634259 0.094656
v -0.657533 -0.585899 0.107900
v -0.665343 -0.537666 0.094350
v -0.671150 -0.502482 0.057636
v -0.673398 -0.489774 0.007596
v -0.671484 -0.502949 -0.042362
v -0.665921 -0.538473 -0.078851
v -0.658201 -0.586832 -0.092095
v -0.650392 -0.635065 -0.078545
v -0.644584 -0.670250 -0.041831
v -0.605178 -0.661934 0.007766
v -0.608088 -0.649324 0.057736
v -0.616370 -0.615337 0.094257
v -0.627807 -0.569081 0.107546
v -0.639332 -0.522950 0.094040
v -0.647859 -0.489305 0.057359
v -0.651103 -0.477160 0.007331
v -0.648193 -0.489771 -0.042639
v -0.639910 -0.523758 -0.079161
v -0.628475 -0.570014 -0.092449
v -0.616948 -0.616145 -0.078943
v -0.608422 -0.649790 -0.042262
v -0.569984 -0.633008 0.007305
v -0.573836 -0.621172 0.057287
v -0.584696 -0.589302 0.093842
v -0.599651 -0.545940 0.107177
v -0.614696 -0.502702 0.093717
v -0.625799 -0.471174 0.057070
v -0.629986 -0.459805 0.007054
v -0.626133 -0.471640 -0.042928
v -0.615275 -0.503509 -0.079484
v -0.600319 -0.546872 -0.092818
v -0.585274 -0.590110 -0.079358
v -0.574170 -0.621638 -0.042711
v -0.537358 -0.596672 0.006833
v -0.542084 -0.585810 0.056828
v -0.555331 -0.556601 0.093418
v -0.573549 -0.516871 0.106799
v -0.591857 -0.477267 0.093386
v -0.605349 -0.448399 0.056774
v -0.610410 -0.438003 0.006771
v -0.605683 -0.448865 -0.043224
v -0.592435 -0.478075 -0.079814
v -0.574217 -0.517803 -0.093195
v -0.555910 -0.557409 -0.079783
v -0.542417 -0.586276 -0.043170
v -0.507855 -0.553549 0.006358
v -0.513372 -0.543843 0.056366
v -0.528779 -0.517790 0.092990
v -0.549948 -0.482373 0.106419
v -0.571205 -0.447080 0.093054
v -0.586857 -0.421369 0.056476
v -0.592708 -0.412130 0.006486
v -0.587191 -0.421836 -0.043522
v -0.571784 -0.447888 -0.080146
v -0.550615 -0.483305 -0.093575
v -0.529358 -0.518598 -0.080210
v -0.513706 -0.544309 -0.043632
v -0.481981 -0.504377 0.005889
v -0.488192 -0.495988 0.055909
v -0.505493 -0.473536 0.092568
v -0.529249 -0.443036 0.106044
v -0.553095 -0.412660 0.092726
v -0.570640 -0.390548 0.056182
v -0.577185 -0.382625 0.006204
v -0.570974 -0.391014 -0.043816
v -0.553674 -0.413468 -0.080475
v -0.529916 -0.443968 -0.093950
v -0.506071 -0.474344 -0.080632
v -0.488526 -0.496454 -0.044089
v -0.460181 -0.449997 0.005433
v -0.466976 -0.443065 0.055466
v -0.485873 -0.424593 0.092158
v -0.511809 -0.399531 0.105679
v -0.537834 -0.374594 0.092407
v -0.556976 -0.356464 0.055897
v -0.564104 -0.349998 0.005931
v -0.557310 -0.356930 -0.044101
v -0.538412 -0.375401 -0.080794
v -0.512477 -0.400463 -0.094315
v -0.486451 -0.425401 -0.081043
v -0.467310 -0.443531 -0.044532
v -0.442826 -0.391340 0.004999
v -0.450086 -0.385980 0.055043
v -0.470254 -0.371802 0.091767
v -0.497925 -0.352605 0.105332
v -0.525686 -0.333534 0.092103
v -0.546097 -0.319697 0.055624
v -0.553691 -0.314803 0.005670
v -0.546431 -0.320163 -0.044374
v -0.526265 -0.334341 -0.081098
v -0.498592 -0.353537 -0.094663
v -0.470832 -0.372609 -0.081434
v -0.450419 -0.386446 -0.044955
v -0.430214 -0.329408 0.004593
v -0.437811 -0.325707 0.054648
v -0.458902 -0.316064 0.091402
v -0.487835 -0.303061 0.105007
v -0.516856 -0.290182 0.091819
v -0.538193 -0.280879 0.055370
v -0.546124 -0.277645 0.005427
v -0.538527 -0.281345 -0.044628
v -0.517435 -0.290990 -0.081382
v -0.488503 -0.303993 -0.094987
v -0.459480 -0.316871 -0.081799
v -0.438145 -0.326174 -0.045350
v -0.422559 -0.265262 0.004223
v -0.430361 -0.263280 0.054288
v -0.452013 -0.258332 0.091069
v -0.481712 -0.251743 0.104711
v -0.511499 -0.245280 0.091560
v -0.533394 -0.240673 0.055138
v -0.541532 -0.239157 0.005205
v -0.533728 -0.241140 -0.044860
v -0.512077 -0.246087 -0.081641
v -0.482379 -0.252675 -0.095283
v -0.452591 -0.259140 -0.082132
v -0.430695 -0.263746 -0.045710
v -0.419993 -0.199999 0.003895
v -0.427865 -0.199767 0.053969
v -0.449704 -0.199596 0.090774
v -0.479659 -0.199533 0.104449
v -0.509703 -0.199596 0.091330
v -0.531786 -0.199767 0.054933
v -0.539992 -0.199999 0.005008
v -0.532120 -0.200233 -0.045065
v -0.510281 -0.200403 -0.081870
v -0.480326 -0.200466 -0.095546
v -0.450282 -0.200403 -0.082427
v -0.428199 -0.200233 -0.046029
v -0.422561 -0.134737 0.003615
v -0.430363 -0.136253 0.053696
v -0.452015 -0.140859 0.090521
v -0.481713 -0.147323 0.104224
v -0.511501 -0.153913 0.091134
v -0.533395 -0.158860 0.054757
v -0.541533 -0.160842 0.004840
v -0.533729 -0.159326 -0.045241
v -0.512079 -0.154720 -0.082067
v -0.482381 -0.148255 -0.095770
v -0.452593 -0.141667 -0.082679
v -0.430697 -0.136719 -0.046302
v -0.430218 -0.070592 0.003387
v -0.437815 -0.073826 0.053474
v -0.458905 -0.083129 0.090316
v -0.487838 -0.096007 0.104042
v -0.516859 -0.109010 0.090974
v -0.538196 -0.118654 0.054614
v -0.546126 -0.122355 0.004703
v -0.538529 -0.119120 -0.045384
v -0.517438 -0.109818 -0.082226
v -0.488506 -0.096939 -0.095952
v -0.459483 -0.083936 -0.082884
v -0.438149 -0.074292 -0.046524
v -0.442832 -0.008659 0.003215
v -0.450091 -0.013554 0.053307
v -0.470259 -0.027390 0.090161
v -0.497929 -0.046462 0.103905
v -0.525690 -0.065658 0.090854
v -0.546101 -0.079836 0.054506
v -0.553694 -0.085196 0.004600
v -0.546435 -0.080302 -0.045492
v -0.526269 -0.066465 -0.082346
v -0.498597 -0.047395 -0.096090
v -0.470837 -0.028197 -0.083039
v -0.450425 -0.014019 -0.046691
v -0.460189 0.049997 0.003103
v -0.466984 0.043532 0.053197
v -0.485879 0.025401 0.090060
v -0.511815 0.000465 0.103815
v -0.537839 -0.024598 0.090775
v -0.556981 -0.043069 0.054436
v -0.564109 -0.050001 0.004533
v -0.557315 -0.043535 -0.045562
v -0.538418 -0.025405 -0.082425
v -0.512483 -0.000468 -0.096180
v -0.486458 0.024595 -0.083140
v -0.467317 0.043066 -0.046801
v -0.481991 0.104378 0.003051
v -0.488201 0.096455 0.053147
v -0.505501 0.074344 0.090014
v -0.529256 0.043969 0.103774
v -0.553100 0.013468 0.090739
v -0.570646 -0.008984 0.054404
v -0.577191 -0.017373 0.004502
v -0.570980 -0.009451 -0.045594
v -0.553679 0.012661 -0.082461
v -0.529924 0.043036 -0.096221
v -0.506080 0.073537 -0.083186
v -0.488535 0.095989 -0.046851
v -0.507866 0.153550 0.003062
v -0.513382 0.144310 0.053158
v -0.528789 0.118598 0.090024
v -0.549956 0.083307 0.103782
v -0.571213 0.047889 0.090747
v -0.586864 0.021836 0.054410
v -0.592715 0.012130 0.004508
v -0.587198 0.021370 -0.045588
v -0.571792 0.047081 -0.082453
v -0.550624 0.082374 -0.096212
v -0.529367 0.117792 -0.083177
v -0.513716 0.143844 -0.046840
v -0.537370 0.196673 0.003135
v -0.542096 0.186278 0.053229
v -0.555342 0.157409 0.090089
v -0.573559 0.117804 0.103840
v -0.591866 0.078075 0.090798
v -0.605357 0.048866 0.054456
v -0.610418 0.038004 0.004552
v -0.605690 0.048399 -0.045542
v -0.592444 0.077268 -0.082403
v -0.574227 0.116872 -0.096154
v -0.555920 0.156602 -0.083111
v -0.542429 0.185811 -0.046769
v -0.569998 0.233009 0.003268
v -0.573849 0.221639 0.053358
v -0.584708 0.190111 0.090209
v -0.599662 0.146873 0.103947
v -0.614706 0.103510 0.090891
v -0.625808 0.071640 0.054539
v -0.629994 0.059806 0.004632
v -0.626141 0.071175 -0.045458
v -0.615284 0.102702 -0.082309
v -0.600330 0.145941 -0.096047
v -0.585286 0.189304 -0.082991
v -0.574183 0.221173 -0.046640
v -0.605192 0.261935 0.003460
v -0.608101 0.249791 0.053545
v -0.616383 0.216146 0.090382
v -0.627819 0.170015 0.104100
v -0.639342 0.123759 0.091025
v -0.647868 0.089772 0.054660
v -0.651111 0.077162 0.004747
v -0.648202 0.089305 -0.045338
v -0.639920 0.122952 -0.082175
v -0.628486 0.169083 -0.095894
v -0.616961 0.215338 -0.082819
v -0.608435 0.249324 -0.046453
v -0.642351 0.282959 0.003706
v -0.644265 0.270251 0.053785
v -0.649827 0.235067 0.090604
v -0.657545 0.186833 0.104298
v -0.665353 0.138474 0.091198
v -0.671160 0.102950 0.054814
v -0.673407 0.089775 0.004895
v -0.671494 0.102483 -0.045184
v -0.665932 0.137667 -0.082003
v -0.658213 0.185900 -0.095697
v -0.650405 0.234259 -0.082597
v -0.644599 0.269784 -0.046213
v -0.680840 0.295717 0.004004
v -0.681721 0.282668 0.054074
v -0.684465 0.246549 0.090871
v -0.688336 0.197041 0.104536
v -0.692294 0.147406 0.091406
v -0.695283 0.110946 0.055001
v -0.696499 0.097430 0.005073
v -0.695617 0.110480 -0.044997
v -0.692873 0.146599 -0.081794
v -0.689003 0.196108 -0.095459
v -0.685043 0.245742 -0.082329
v -0.682055 0.282202 -0.045924
v -0.719996 0.299995 0.004347
v -0.719829 0.286830 0.054408
v -0.719707 0.250399 0.091180
v -0.719661 0.200462 0.104810
v -0.719705 0.150401 0.091646
v -0.719827 0.113627 0.055216
v -0.719993 0.099997 0.005279
v -0.720161 0.113161 -0.044782
v -0.720283 0.149593 -0.081554
v -0.720329 0.199530 -0.095184
v -0.720285 0.249592 -0.082020
v -0.720163 0.286364 -0.045589
v -0.759153 0.295717 0.004730
v -0.757938 0.282668 0.054781
v -0.754949 0.246549 0.091525
v -0.750987 0.197041 0.105117
v -0.747116 0.147406 0.091915
v -0.744371 0.110946 0.055456
v -0.743488 0.097430 0.005509
v -0.744705 0.110480 -0.044542
v -0.747694 0.146599 -0.081286
v -0.751655 0.196108 -0.094877
v -0.755527 0.245742 -0.081675
v -0.758272 0.282202 -0.045217
v -0.797641 0.282959 0.005147
v -0.795393 0.270251 0.055187
v -0.789586 0.235067 0.091900
v -0.781777 0.186833 0.105450
v -0.774057 0.138474 0.092206
v -0.768494 0.102950 0.055717
v -0.766580 0.089775 0.005759
v -0.768827 0.102483 -0.044281
v -0.774635 0.137667 -0.080994
v -0.782444 0.185900 -0.094544
v -0.790164 0.234259 -0.081301
v -0.795727 0.269784 -0.044811
v -0.834800 0.261935 0.005589
v -0.831556 0.249791 0.055617
v -0.823029 0.216146 0.092298
v -0.811503 0.170015 0.105804
v -0.800068 0.123759 0.092516
v -0.791785 0.089772 0.055994
v -0.788875 0.077162 0.006025
v -0.792119 0.089305 -0.044003
v -0.800646 0.122952 -0.080684
v -0.812171 0.169083 -0.094190
v -0.823607 0.215338 -0.080902
v -0.831890 0.249324 -0.044380
v -0.869993 0.233009 0.006051
v -0.865806 0.221639 0.056066
v -0.854704 0.190111 0.092714
v -0.839659 0.146873 0.106173
v -0.824703 0.103510 0.092839
v -0.813843 0.071640 0.056284
v -0.809992 0.059806 0.006301
v -0.814177 0.071175 -0.043714
v -0.825281 0.102702 -0.080362
v -0.840326 0.145941 -0.093821
v -0.855282 0.189304 -0.080487
v -0.866140 0.221173 -0.043932
v -0.902620 0.196673 0.006523
v -0.897560 0.186277 0.056526
v -0.884068 0.157409 0.093138
v -0.865761 0.117804 0.106551
v -0.847542 0.078075 0.093169
v -0.834295 0.048866 0.056579
v -0.829567 0.038004 0.006585
v -0.834629 0.048399 -0.043418
v -0.848121 0.077268 -0.080031
v -0.866428 0.116872 -0.093444
v -0.884647 0.156602 -0.080062
v -0.897894 0.185811 -0.043472
v -0.932123 0.153550 0.006997
v -0.926272 0.144310 0.056988
v -0.910620 0.118598 0.093566
v -0.889362 0.083307 0.106930
v -0.868194 0.047889 0.093502
v -0.852786 0.021836 0.056877
v -0.847270 0.012130 0.006869
v -0.853120 0.021370 -0.043121
v -0.868772 0.047081 -0.079699
v -0.890030 0.082374 -0.093064
v -0.911198 0.117792 -0.079635
v -0.926606 0.143844 -0.043010
v -0.957996 0.104378 0.007466
v -0.951451 0.096455 0.057444
v -0.933907 0.074344 0.093988
v -0.910060 0.043969 0.107306
v -0.886304 0.013469 0.093830
v -0.869003 -0.008984 0.057171
v -0.862792 -0.017372 0.007151
v -0.869337 -0.009451 -0.042827
v -0.886882 0.012661 -0.079370
v -0.910728 0.043036 -0.092688
v -0.934485 0.073537 -0.079213
v -0.951785 0.095989 -0.042554
v -0.979796 0.049997 0.007922
v -0.972668 0.043532 0.057888
v -0.953527 0.025401 0.094398
v -0.927501 0.000465 0.107670
v -0.901566 -0.024598 0.094149
v -0.882668 -0.043069 0.057457
v -0.875873 -0.050002 0.007424
v -0.883002 -0.043535 -0.042541
v -0.902144 -0.025405 -0.079051
v -0.928169 -0.000468 -0.092324
v -0.954105 0.024595 -0.078803
v -0.973002 0.043066 -0.042110
v -0.997151 -0.008659 0.008357
v -0.989558 -0.013554 0.058311
v -0.969146 -0.027390 0.094789
v -0.941385 -0.046462 0.108018
v -0.913713 -0.065658 0.094453
v -0.893546 -0.079836 0.057729
v -0.886285 -0.085196 0.007685
v -0.893880 -0.080302 -0.042269
v -0.914291 -0.066465 -0.078747
v -0.942053 -0.047395 -0.091976
v -0.969724 -0.028197 -0.078412
v -0.989892 -0.014019 -0.041687
v -1.009764 -0.070591 0.008762
v -1.001833 -0.073826 0.058705
v -0.980498 -0.083128 0.095154
v -0.951475 -0.096007 0.108342
v -0.922543 -0.109010 0.094737
v -0.901451 -0.118654 0.057983
v -0.893854 -0.122355 0.007928
v -0.901785 -0.119120 -0.042015
v -0.923121 -0.109818 -0.078463
v -0.952143 -0.096939 -0.091652
v -0.981076 -0.083935 -0.078046
v -1.002167 -0.074292 -0.041293
v -1.017419 -0.134737 0.009132
v -1.009283 -0.136253 0.059065
v -0.987386 -0.140859 0.095487
v -0.957599 -0.147323 0.108638
v -0.927900 -0.153913 0.094996
v -0.906249 -0.158860 0.058215
v -0.898446 -0.160842 0.008150
v -0.906583 -0.159326 -0.041783
v -0.928478 -0.154720 -0.078204
v -0.958266 -0.148255 -0.091356
v -0.987965 -0.141667 -0.077713
v -1.009616 -0.136719 -0.040932
v -1.019984 -0.199999 0.009460
v -1.011779 -0.199767 0.059385
v -0.989696 -0.199596 0.095782
v -0.959651 -0.199533 0.108901
v -0.929697 -0.199596 0.095226
v -0.907858 -0.199767 0.058421
v -0.899986 -0.199999 0.008347
v -0.908192 -0.200233 -0.041577
v -0.930275 -0.200403 -0.077975
v -0.960319 -0.200466 -0.091093
v -0.990274 -0.200403 -0.077418
v -1.012113 -0.200233 -0.040613
v -1.017417 -0.265262 0.009741
v -1.009280 -0.263280 0.059658
v -0.987385 -0.258332 0.096035
v -0.957597 -0.251743 0.109125
v -0.927899 -0.245280 0.095422
v -0.906249 -0.240673 0.058597
v -0.898445 -0.239157 0.008515
v -0.906583 -0.241140 -0.041401
v -0.928477 -0.246087 -0.077778
v -0.958265 -0.252676 -0.090869
v -0.987963 -0.259140 -0.077166
v -1.009614 -0.263746 -0.040340
v -1.009760 -0.329407 0.009969
v -1.001829 -0.325707 0.059879
v -0.980495 -0.316062 0.096240
v -0.951472 -0.303059 0.109308
v -0.922540 -0.290182 0.095582
v -0.901448 -0.280879 0.058739
v -0.893852 -0.277645 0.008652
v -0.901782 -0.281345 -0.041258
v -0.923118 -0.290990 -0.077619
v -0.952139 -0.303992 -0.090687
v -0.981073 -0.316870 -0.076961
v -1.002163 -0.326174 -0.040118
v -0.997146 -0.391340 0.010140
v -0.989552 -0.385980 0.060047
v -0.969140 -0.371802 0.096394
v -0.941381 -0.352605 0.109445
v -0.913709 -0.333534 0.095702
v -0.893543 -0.319697 0.058847
v -0.886282 -0.314803 0.008755
v -0.893877 -0.320163 -0.041151
v -0.914288 -0.334341 -0.077499
v -0.942049 -0.353537 -0.090549
v -0.969719 -0.372609 -0.076806
v -0.989886 -0.386446 -0.039951
v -0.979788 -0.449997 0.010253
v -0.972660 -0.443065 0.060156
v -0.953520 -0.424593 0.096496
v -0.927495 -0.399531 0.109535
v -0.901560 -0.374594 0.095781
v -0.882663 -0.356464 0.058918
v -0.875869 -0.349998 0.008823
v -0.882997 -0.356930 -0.041080
v -0.902138 -0.375401 -0.077420
v -0.928163 -0.400463 -0.090459
v -0.954098 -0.425401 -0.076705
v -0.972994 -0.443531 -0.039842
v -0.957987 -0.504377 0.010304
v -0.951442 -0.495988 0.060206
v -0.933898 -0.473536 0.096542
v -0.910054 -0.443035 0.109576
v -0.886297 -0.412660 0.095816
v -0.868998 -0.390548 0.058950
v -0.862787 -0.382625 0.008854
v -0.869332 -0.391014 -0.041048
v -0.886876 -0.413467 -0.077384
v -0.910721 -0.443967 -0.090418
v -0.934477 -0.474344 -0.076659
v -0.951776 -0.496454 -0.039792
v -0.932111 -0.553549 0.010293
v -0.926261 -0.543843 0.060195
v -0.910610 -0.517790 0.096532
v -0.889354 -0.482373 0.109567
v -0.868186 -0.447080 0.095809
v -0.852779 -0.421369 0.058943
v -0.847263 -0.412130 0.008847
v -0.853113 -0.421836 -0.041055
v -0.868764 -0.447888 -0.077392
v -0.890021 -0.483306 -0.090427
v -0.911189 -0.518598 -0.076668
v -0.926595 -0.544309 -0.039802
v -0.902608 -0.596672 0.010221
v -0.897548 -0.585810 0.060125
v -0.884057 -0.556601 0.096467
v -0.865751 -0.516871 0.109509
v -0.847534 -0.477267 0.095758
v -0.834287 -0.448399 0.058897
v -0.829560 -0.438003 0.008803
v -0.834621 -0.448865 -0.041101
v -0.848112 -0.478075 -0.077442
v -0.866419 -0.517803 -0.090485
v -0.884636 -0.557409 -0.076734
v -0.897882 -0.586276 -0.039873
v -0.869980 -0.633008 0.010087
v -0.865795 -0.621172 0.059995
v -0.854692 -0.589303 0.096347
v -0.839648 -0.545940 0.109403
v -0.824693 -0.502702 0.095665
v -0.813835 -0.471174 0.058814
v -0.809984 -0.459805 0.008724
v -0.814169 -0.471640 -0.041184
v -0.825272 -0.503509 -0.077536
v -0.840316 -0.546872 -0.090592
v -0.855270 -0.590110 -0.076854
v -0.866129 -0.621638 -0.040003
v -0.834785 -0.661934 0.009896
v -0.831542 -0.649324 0.059809
v -0.823016 -0.615337 0.096174
v -0.811491 -0.569081 0.109249
v -0.800057 -0.522950 0.095531
v -0.791776 -0.489305 0.058694
v -0.788867 -0.477160 0.008609
v -0.792110 -0.489771 -0.041304
v -0.800636 -0.523758 -0.077670
v -0.812159 -0.570014 -0.090745
v -0.823595 -0.616145 -0.077026
v -0.831876 -0.649790 -0.040189
v -0.797626 -0.682957 0.009649
v -0.795379 -0.669783 0.059568
v -0.789572 -0.634259 0.095952
v -0.781765 -0.585899 0.109052
v -0.774046 -0.537666 0.095358
v -0.768484 -0.502482 0.058539
v -0.766571 -0.489774 0.008461
v -0.768818 -0.502949 -0.041459
v -0.774624 -0.538473 -0.077843
v -0.782432 -0.586832 -0.090942
v -0.790151 -0.635065 -0.077248
v -0.795713 -0.670250 -0.040429
v -0.759138 -0.695717 0.009352
v -0.757923 -0.682202 0.059279
v -0.754935 -0.645741 0.095684
v -0.750974 -0.596107 0.108814
v -0.747105 -0.546598 0.095150
v -0.744362 -0.510479 0.058353
v -0.743478 -0.497429 0.008282
v -0.744695 -0.510945 -0.041645
v -0.747683 -0.547405 -0.078051
v -0.751642 -0.597040 -0.091180
v -0.755513 -0.646549 -0.077516
v -0.758257 -0.682667 -0.040719
v 0.840158 -0.449764 0.043372
v 0.930157 -0.449764 0.042538
v 0.929823 -0.450230 -0.057460
v 0.839824 -0.450230 -0.056625
v 0.839824 -0.450230 -0.056625
v 0.929823 -0.450230 -0.057460
v 0.929826 -0.650228 -0.056528
v 0.839827 -0.650228 -0.055693
v 0.839827 -0.650228 -0.055693
v 0.929826 -0.650228 -0.056528
v 0.930160 -0.649761 0.043470
v 0.840161 -0.649761 0.044305
v 0.840161 -0.649761 0.044305
v 0.930160 -0.649761 0.043470
v 0.930157 -0.449764 0.042538
v 0.840158 -0.449764 0.043372
v 0.839824 -0.450230 -0.056625
v 0.839827 -0.650228 -0.055693
v 0.840161 -0.649761 0.044305
v 0.840158 -0.449764 0.043372
v 0.929826 -0.650228 -0.056528
v 0.929823 -0.450230 -0.057460
v 0.930157 -0.449764 0.042538
v 0.930160 -0.649761 0.043470
vn 0.4342 -0.3461 -0.8317
vn 0.4181 -0.1799 -0.8904
vn 0.4122 -0.0043 -0.9111
vn 0.4181 0.1716 -0.8921
vn 0.4342 0.3383 -0.8349
vn 0.4567 0.4880 -0.7438
vn 0.4809 0.6146 -0.6253
vn 0.5033 0.7143 -0.4862
vn 0.5209 0.7860 -0.3331
vn 0.5326 0.8289 -0.1713
vn 0.5373 0.8434 -0.0058
vn 0.5350 0.8296 0.1599
vn 0.5259 0.7874 0.3215
vn 0.5108 0.7168 0.4748
vn 0.4907 0.6182 0.6141
vn 0.4685 0.4929 0.7332
vn 0.4477 0.3447 0.8251
vn 0.4326 0.1791 0.8836
vn 0.4272 0.0043 0.9042
vn 0.4327 -0.1708 0.8852
vn 0.4477 -0.3368 0.8283
vn 0.4685 -0.4861 0.7377
vn 0.4909 -0.6123 0.6198
vn 0.5108 -0.7123 0.4814
vn 0.5260 -0.7843 0.3289
vn 0.5350 -0.8280 0.1676
vn 0.5374 -0.8433 0.0022
vn 0.5326 -0.8304 -0.1637
vn 0.5210 -0.7890 -0.3257
vn 0.5034 -0.7188 -0.4795
vn 0.4810 -0.6204 -0.6195
vn 0.4568 -0.4949 -0.7392
vn -0.4327 0.1709 -0.8852
vn -0.4272 -0.0043 -0.9042
vn -0.4327 -0.1791 -0.8836
vn -0.4478 -0.3447 -0.8251
vn -0.4685 -0.4929 -0.7332
vn -0.4907 -0.6181 -0.6141
vn -0.5107 -0.7168 -0.4748
vn -0.5259 -0.7874 -0.3216
vn -0.5350 -0.8296 -0.1599
vn -0.5373 -0.8434 0.0057
vn -0.5325 -0.8289 0.1713
vn -0.5209 -0.7859 0.3331
vn -0.5033 -0.7144 0.4862
vn -0.4809 -0.6145 0.6254
vn -0.4567 -0.4880 0.7438
vn -0.4342 -0.3383 0.8349
vn -0.4181 -0.1716 0.8920
vn -0.4122 0.0043 0.9111
vn -0.4182 0.1799 0.8904
vn -0.4343 0.3461 0.8316
vn -0.4568 0.4949 0.7392
vn -0.4810 0.6203 0.6195
vn -0.5034 0.7188 0.4795
vn -0.5210 0.7890 0.3256
vn -0.5326 0.8304 0.1637
vn -0.5374 0.8433 -0.0022
vn -0.5350 0.8280 -0.1676
vn -0.5260 0.7843 -0.3289
vn -0.5108 0.7123 -0.4814
vn -0.4908 0.6123 -0.6198
vn -0.4685 0.4861 -0.7377
vn -0.4477 0.3369 -0.8283
vn -0.0000 1.0000 -0.0047
vn -0.0093 -0.0047 -0.9999
vn -0.0000 -1.0000 0.0047
vn 0.0093 0.0047 0.9999
vn -1.0000 -0.0000 0.0033
vn 1.0000 -0.0000 -0.0033
vn 0.2071 -0.9783 0.0038
vn 0.1846 -0.8437 0.5040
vn 0.0047 -0.8617 0.5074
vn 0.1158 -0.4869 0.8657
vn 0.0080 -0.4979 0.8672
vn 0.0188 -0.0185 0.9997
vn 0.0093 -0.0214 0.9997
vn -0.0906 0.4635 0.8815
vn 0.0082 0.4689 0.8832
vn -0.1783 0.8394 0.5135
vn 0.0048 0.8553 0.5182
vn -0.2136 0.9769 -0.0038
vn -0.1877 0.8336 -0.5194
vn -0.0048 0.8504 -0.5261
vn -0.1068 0.4548 -0.8842
vn -0.0082 0.4606 -0.8876
vn 0.0003 -0.0278 -0.9996
vn -0.0093 -0.0307 -0.9995
vn 0.0998 -0.4955 -0.8628
vn -0.0080 -0.5059 -0.8626
vn 0.1756 -0.8493 -0.4978
vn -0.0046 -0.8664 -0.4993
vn 0.3973 -0.9177 0.0029
vn 0.3511 -0.7952 0.4944
vn 0.2144 -0.4587 0.8623
vn 0.0252 -0.0118 0.9996
vn -0.1861 0.4461 0.8754
vn -0.3483 0.7934 0.4993
vn -0.4073 0.9133 -0.0029
vn -0.3568 0.7870 -0.5032
vn -0.2020 0.4371 -0.8764
vn 0.0067 -0.0211 -0.9998
vn 0.1988 -0.4677 -0.8613
vn 0.3427 -0.8014 -0.4903
vn 0.5584 -0.8296 0.0020
vn 0.4952 -0.7255 0.4779
vn 0.3003 -0.4206 0.8561
vn 0.0277 -0.0049 0.9996
vn -0.2740 0.4175 0.8664
vn -0.4950 0.7249 0.4791
vn -0.5681 0.8229 -0.0019
vn -0.5025 0.7183 -0.4811
vn -0.2893 0.4082 -0.8658
vn 0.0091 -0.0142 -0.9999
vn 0.2853 -0.4299 -0.8566
vn 0.4877 -0.7320 -0.4758
vn 0.6858 -0.7278 0.0011
vn 0.6136 -0.6441 0.4567
vn 0.3736 -0.3778 0.8472
vn 0.0275 0.0006 0.9996
vn -0.3516 0.3803 0.8554
vn -0.6145 0.6435 0.4564
vn -0.6939 0.7200 -0.0011
vn -0.6210 0.6371 -0.4566
vn -0.3661 0.3710 -0.8534
vn 0.0090 -0.0087 -0.9999
vn 0.3592 -0.3871 -0.8492
vn 0.6072 -0.6505 -0.4562
vn 0.7825 -0.6227 0.0003
vn 0.7075 -0.5578 0.4340
vn 0.4357 -0.3327 0.8363
vn 0.0262 0.0045 0.9996
vn -0.4176 0.3377 0.8436
vn -0.7083 0.5570 0.4338
vn -0.7884 0.6151 -0.0002
vn -0.7137 0.5509 -0.4326
vn -0.4313 0.3285 -0.8403
vn 0.0075 -0.0048 -1.0000
vn 0.4220 -0.3420 -0.8396
vn 0.7020 -0.5639 -0.4350
vn 0.8540 -0.5203 -0.0004
vn 0.7799 -0.4711 0.4122
vn 0.4879 -0.2865 0.8246
vn 0.0240 0.0071 0.9997
vn -0.4724 0.2921 0.8316
vn -0.7799 0.4702 0.4131
vn -0.8582 0.5133 0.0004
vn -0.7846 0.4645 -0.4106
vn -0.4855 0.2830 -0.8271
vn 0.0055 -0.0023 -1.0000
vn 0.4747 -0.2955 -0.8291
vn 0.7752 -0.4767 -0.4145
vn 0.9062 -0.4229 -0.0010
vn 0.8346 -0.3862 0.3929
vn 0.5309 -0.2393 0.8130
vn 0.0218 0.0085 0.9997
vn -0.5168 0.2448 0.8203
vn -0.8337 0.3856 0.3953
vn -0.9088 0.4171 0.0011
vn -0.8378 0.3804 -0.3918
vn -0.5294 0.2360 -0.8149
vn 0.0033 -0.0008 -1.0000
vn 0.5184 -0.2481 -0.8184
vn 0.8305 -0.3915 -0.3963
vn 0.9437 -0.3309 -0.0016
vn 0.8750 -0.3042 0.3767
vn 0.5653 -0.1915 0.8023
vn 0.0197 0.0090 0.9998
vn -0.5518 0.1968 0.8104
vn -0.8732 0.3040 0.3808
vn -0.9452 0.3265 0.0016
vn -0.8768 0.2993 -0.3763
vn -0.5638 0.1881 -0.8042
vn 0.0012 -0.0003 -1.0000
vn 0.5534 -0.2000 -0.8085
vn 0.8713 -0.3090 -0.3812
vn 0.9698 -0.2438 -0.0021
vn 0.9037 -0.2249 0.3642
vn 0.5918 -0.1432 0.7933
vn 0.0178 0.0088 0.9998
vn -0.5780 0.1484 0.8024
vn -0.9014 0.2254 0.3698
vn -0.9706 0.2406 0.0021
vn -0.9046 0.2211 -0.3644
vn -0.5896 0.1401 -0.7954
vn -0.0008 -0.0005 -1.0000
vn 0.5802 -0.1515 -0.8003
vn 0.9005 -0.2293 -0.3695
vn 0.9870 -0.1604 -0.0026
vn 0.9230 -0.1480 0.3552
vn 0.6105 -0.0946 0.7863
vn 0.0162 0.0079 0.9998
vn -0.5961 0.1000 0.7966
vn -0.9201 0.1494 0.3620
vn -0.9874 0.1582 0.0026
vn -0.9232 0.1454 -0.3558
vn -0.6075 0.0920 -0.7890
vn -0.0023 -0.0014 -1.0000
vn 0.5993 -0.1025 -0.7940
vn 0.9200 -0.1520 -0.3613
vn 0.9968 -0.0796 -0.0030
vn 0.9341 -0.0728 0.3496
vn 0.6218 -0.0455 0.7819
vn 0.0152 0.0065 0.9999
vn -0.6068 0.0518 0.7932
vn -0.9308 0.0751 0.3576
vn -0.9969 0.0787 0.0030
vn -0.9338 0.0715 -0.3506
vn -0.6179 0.0442 -0.7850
vn -0.0033 -0.0029 -1.0000
vn 0.6107 -0.0531 -0.7901
vn 0.9311 -0.0764 -0.3566
vn 0.9376 0.0017 0.3476
vn 0.6254 0.0036 0.7803
vn 0.0148 0.0047 0.9999
vn -0.6103 0.0037 0.7921
vn -0.9344 0.0017 0.3563
vn -0.9372 -0.0017 -0.3487
vn -0.6214 -0.0036 -0.7835
vn -0.0036 -0.0047 -1.0000
vn 0.6144 -0.0037 -0.7890
vn 0.9348 -0.0017 -0.3552
vn 0.9968 0.0796 -0.0037
vn 0.9341 0.0761 0.3489
vn 0.6217 0.0528 0.7815
vn 0.0152 0.0029 0.9999
vn -0.6068 -0.0444 0.7936
vn -0.9309 -0.0718 0.3583
vn -0.9969 -0.0785 0.0037
vn -0.9338 -0.0748 -0.3499
vn -0.6180 -0.0515 -0.7845
vn -0.0033 -0.0065 -1.0000
vn 0.6106 0.0458 -0.7906
vn 0.9312 0.0731 -0.3572
vn 0.9870 0.1605 -0.0040
vn 0.9230 0.1514 0.3538
vn 0.6105 0.1019 0.7854
vn 0.0162 0.0014 0.9999
vn -0.5961 -0.0926 0.7976
vn -0.9201 -0.1460 0.3634
vn -0.9874 -0.1582 0.0040
vn -0.9232 -0.1488 -0.3544
vn -0.6074 -0.0995 -0.7881
vn -0.0023 -0.0079 -1.0000
vn 0.5993 0.0951 -0.7949
vn 0.9200 0.1486 -0.3627
vn 0.9698 0.2438 -0.0044
vn 0.9037 0.2284 0.3621
vn 0.5918 0.1506 0.7919
vn 0.0178 0.0005 0.9998
vn -0.5780 -0.1409 0.8038
vn -0.9014 -0.2220 0.3718
vn -0.9707 -0.2404 0.0043
vn -0.9046 -0.2246 -0.3623
vn -0.5896 -0.1475 -0.7941
vn -0.0008 -0.0088 -1.0000
vn 0.5802 0.1440 -0.8016
vn 0.9005 0.2258 -0.3717
vn 0.9436 0.3309 -0.0047
vn 0.8749 0.3078 0.3739
vn 0.5653 0.1990 0.8005
vn 0.0197 0.0003 0.9998
vn -0.5517 -0.1892 0.8123
vn -0.8732 -0.3005 0.3837
vn -0.9452 -0.3264 0.0046
vn -0.8768 -0.3028 -0.3735
vn -0.5638 -0.1957 -0.8024
vn 0.0012 -0.0090 -1.0000
vn 0.5534 0.1925 -0.8104
vn 0.8713 0.3054 -0.3841
vn 0.9062 0.4229 -0.0050
vn 0.8346 0.3900 0.3892
vn 0.5308 0.2469 0.8107
vn 0.0218 0.0008 0.9998
vn -0.5168 -0.2372 0.8226
vn -0.8337 -0.3819 0.3989
vn -0.9089 -0.4171 0.0050
vn -0.8377 -0.3841 -0.3882
vn -0.5293 -0.2436 -0.8127
vn 0.0033 -0.0085 -1.0000
vn 0.5184 0.2405 -0.8206
vn 0.8305 0.3878 -0.3999
vn 0.8540 0.5203 -0.0053
vn 0.7799 0.4749 0.4077
vn 0.4878 0.2941 0.8219
vn 0.0240 0.0023 0.9997
vn -0.4724 -0.2844 0.8343
vn -0.7799 -0.4663 0.4174
vn -0.8581 -0.5134 0.0052
vn -0.7846 -0.4683 -0.4063
vn -0.4855 -0.2907 -0.8245
vn 0.0055 -0.0071 -1.0000
vn 0.4748 0.2878 -0.8317
vn 0.7751 0.4729 -0.4189
vn 0.7825 0.6227 -0.0055
vn 0.7075 0.5618 0.4287
vn 0.4357 0.3406 0.8332
vn 0.0262 0.0048 0.9996
vn -0.4176 -0.3299 0.8467
vn -0.7082 -0.5529 0.4390
vn -0.7885 -0.6150 0.0055
vn -0.7137 -0.5549 -0.4275
vn -0.4313 -0.3363 -0.8372
vn 0.0075 -0.0045 -1.0000
vn 0.4220 0.3342 -0.8427
vn 0.7019 0.5598 -0.4403
vn 0.6858 0.7278 -0.0057
vn 0.6136 0.6484 0.4507
vn 0.3735 0.3857 0.8436
vn 0.0275 0.0087 0.9996
vn -0.3515 -0.3723 0.8590
vn -0.6145 -0.6393 0.4623
vn -0.6940 -0.7200 0.0057
vn -0.6209 -0.6414 -0.4507
vn -0.3661 -0.3789 -0.8499
vn 0.0090 -0.0006 -1.0000
vn 0.3592 0.3792 -0.8527
vn 0.6071 0.6463 -0.4623
vn 0.5584 0.8296 -0.0057
vn 0.4951 0.7300 0.4711
vn 0.3001 0.4286 0.8522
vn 0.0276 0.0142 0.9995
vn -0.2740 -0.4094 0.8702
vn -0.4950 -0.7204 0.4858
vn -0.5681 -0.8229 0.0057
vn -0.5024 -0.7228 -0.4744
vn -0.2893 -0.4163 -0.8620
vn 0.0091 0.0049 -0.9999
vn 0.2851 0.4219 -0.8607
vn 0.4876 0.7276 -0.4826
vn 0.3973 0.9177 -0.0056
vn 0.3510 0.7998 0.4870
vn 0.2143 0.4667 0.8581
vn 0.0251 0.0211 0.9995
vn -0.1861 -0.4379 0.8795
vn -0.3482 -0.7887 0.5067
vn -0.4071 -0.9134 0.0056
vn -0.3567 -0.7918 -0.4959
vn -0.2018 -0.4452 -0.8724
vn 0.0067 0.0118 -0.9999
vn 0.1988 0.4597 -0.8656
vn 0.3425 0.7968 -0.4977
vn 0.2070 0.9783 -0.0052
vn 0.1846 0.8484 0.4961
vn 0.1157 0.4950 0.8612
vn 0.0188 0.0278 0.9994
vn -0.0904 -0.4552 0.8858
vn -0.1782 -0.8346 0.5213
vn -0.2143 -0.9768 0.0053
vn -0.1875 -0.8384 -0.5117
vn -0.1068 -0.4630 -0.8799
vn 0.0003 0.0185 -0.9998
vn 0.0998 0.4875 -0.8674
vn 0.1754 0.8447 -0.5057
vn 0.0047 0.8664 0.4993
vn 0.0080 0.5059 0.8626
vn 0.0093 0.0307 0.9995
vn 0.0082 -0.4606 0.8876
vn 0.0048 -0.8504 0.5261
vn -0.0048 -0.8553 -0.5182
vn -0.0082 -0.4689 -0.8832
vn -0.0093 0.0214 -0.9997
vn -0.0080 0.4979 -0.8672
vn -0.0047 0.8617 -0.5074
vn -0.2071 0.9783 -0.0038
vn -0.1756 0.8493 0.4978
vn -0.0998 0.4955 0.8628
vn -0.0003 0.0278 0.9996
vn 0.1068 -0.4548 0.8842
vn 0.1877 -0.8336 0.5194
vn 0.2136 -0.9769 0.0038
vn 0.1783 -0.8393 -0.5135
vn 0.0906 -0.4635 -0.8815
vn -0.0188 0.0185 -0.9997
vn -0.1158 0.4869 -0.8657
vn -0.1846 0.8438 -0.5039
vn -0.3973 0.9177 -0.0029
vn -0.3427 0.8014 0.4903
vn -0.1988 0.4677 0.8613
vn -0.0067 0.0211 0.9998
vn 0.2020 -0.4371 0.8764
vn 0.3568 -0.7870 0.5032
vn 0.4078 -0.9131 0.0029
vn 0.3483 -0.7934 -0.4993
vn 0.1861 -0.4461 -0.8754
vn -0.0252 0.0118 -0.9996
vn -0.2144 0.4587 -0.8623
vn -0.3511 0.7952 -0.4944
vn -0.5583 0.8296 -0.0020
vn -0.4877 0.7320 0.4758
vn -0.2853 0.4299 0.8566
vn -0.0091 0.0142 0.9999
vn 0.2893 -0.4082 0.8658
vn 0.5025 -0.7183 0.4811
vn 0.5681 -0.8229 0.0019
vn 0.4950 -0.7249 -0.4791
vn 0.2740 -0.4175 -0.8664
vn -0.0277 0.0049 -0.9996
vn -0.3003 0.4206 -0.8561
vn -0.4952 0.7255 -0.4779
vn -0.6858 0.7278 -0.0011
vn -0.6072 0.6505 0.4562
vn -0.3592 0.3871 0.8492
vn -0.0090 0.0087 0.9999
vn 0.3660 -0.3710 0.8534
vn 0.6210 -0.6371 0.4566
vn 0.6940 -0.7200 0.0010
vn 0.6145 -0.6435 -0.4563
vn 0.3516 -0.3803 -0.8554
vn -0.0275 -0.0006 -0.9996
vn -0.3736 0.3778 -0.8472
vn -0.6136 0.6441 -0.4567
vn -0.7825 0.6227 -0.0003
vn -0.7020 0.5639 0.4350
vn -0.4220 0.3420 0.8396
vn -0.0075 0.0048 1.0000
vn 0.4313 -0.3285 0.8403
vn 0.7137 -0.5509 0.4326
vn 0.7884 -0.6152 0.0002
vn 0.7083 -0.5570 -0.4337
vn 0.4176 -0.3377 -0.8436
vn -0.0262 -0.0045 -0.9996
vn -0.4357 0.3328 -0.8363
vn -0.7075 0.5578 -0.4340
vn -0.8540 0.5203 0.0004
vn -0.7752 0.4767 0.4145
vn -0.4748 0.2955 0.8290
vn -0.0055 0.0023 1.0000
vn 0.4855 -0.2830 0.8271
vn 0.7846 -0.4645 0.4106
vn 0.8582 -0.5133 -0.0005
vn 0.7799 -0.4702 -0.4131
vn 0.4724 -0.2921 -0.8316
vn -0.0240 -0.0071 -0.9997
vn -0.4879 0.2865 -0.8246
vn -0.7799 0.4711 -0.4122
vn -0.9062 0.4229 0.0010
vn -0.8305 0.3915 0.3963
vn -0.5184 0.2481 0.8184
vn -0.0033 0.0008 1.0000
vn 0.5294 -0.2360 0.8149
vn 0.8377 -0.3804 0.3918
vn 0.9088 -0.4171 -0.0011
vn 0.8337 -0.3856 -0.3953
vn 0.5169 -0.2448 -0.8203
vn -0.0218 -0.0085 -0.9997
vn -0.5309 0.2393 -0.8130
vn -0.8346 0.3862 -0.3929
vn -0.9437 0.3309 0.0016
vn -0.8713 0.3090 0.3812
vn -0.5534 0.2000 0.8085
vn -0.0012 0.0003 1.0000
vn 0.5638 -0.1882 0.8042
vn 0.8768 -0.2993 0.3763
vn 0.9452 -0.3264 -0.0016
vn 0.8732 -0.3040 -0.3808
vn 0.5517 -0.1968 -0.8105
vn -0.0197 -0.0090 -0.9998
vn -0.5654 0.1915 -0.8023
vn -0.8749 0.3043 -0.3767
vn -0.9698 0.2438 0.0021
vn -0.9005 0.2293 0.3695
vn -0.5802 0.1515 0.8003
vn 0.0008 0.0005 1.0000
vn 0.5896 -0.1401 0.7954
vn 0.9046 -0.2211 0.3644
vn 0.9706 -0.2405 -0.0021
vn 0.9014 -0.2254 -0.3698
vn 0.5780 -0.1483 -0.8025
vn -0.0178 -0.0088 -0.9998
vn -0.5918 0.1432 -0.7933
vn -0.9037 0.2249 -0.3642
vn -0.9870 0.1605 0.0025
vn -0.9200 0.1520 0.3613
vn -0.5993 0.1025 0.7940
vn 0.0023 0.0014 1.0000
vn 0.6074 -0.0920 0.7890
vn 0.9232 -0.1454 0.3558
vn 0.9874 -0.1582 -0.0026
vn 0.9201 -0.1494 -0.3620
vn 0.5961 -0.1000 -0.7966
vn -0.0161 -0.0079 -0.9998
vn -0.6105 0.0946 -0.7863
vn -0.9230 0.1480 -0.3552
vn -0.9968 0.0796 0.0030
vn -0.9311 0.0764 0.3566
vn -0.6107 0.0531 0.7901
vn 0.0034 0.0029 1.0000
vn 0.6179 -0.0442 0.7850
vn 0.9338 -0.0715 0.3506
vn 0.9969 -0.0787 -0.0030
vn 0.9309 -0.0751 -0.3576
vn 0.6068 -0.0518 -0.7932
vn -0.0152 -0.0065 -0.9999
vn -0.6218 0.0456 -0.7819
vn -0.9341 0.0728 -0.3496
vn -0.9348 0.0017 0.3552
vn -0.6144 0.0037 0.7890
vn 0.0036 0.0047 1.0000
vn 0.6214 0.0036 0.7835
vn 0.9372 0.0017 0.3487
vn 0.9344 -0.0017 -0.3563
vn 0.6103 -0.0037 -0.7921
vn -0.0148 -0.0047 -0.9999
vn -0.6254 -0.0036 -0.7803
vn -0.9376 -0.0017 -0.3476
vn -0.9968 -0.0796 0.0037
vn -0.9311 -0.0731 0.3572
vn -0.6107 -0.0458 0.7905
vn 0.0033 0.0065 1.0000
vn 0.6180 0.0515 0.7845
vn 0.9338 0.0748 0.3499
vn 0.9969 0.0785 -0.0037
vn 0.9309 0.0718 -0.3583
vn 0.6068 0.0444 -0.7936
vn -0.0152 -0.0029 -0.9999
vn -0.6217 -0.0528 -0.7814
vn -0.9341 -0.0761 -0.3489
vn -0.9870 -0.1604 0.0040
vn -0.9200 -0.1486 0.3627
vn -0.5993 -0.0951 0.7949
vn 0.0023 0.0079 1.0000
vn 0.6074 0.0995 0.7881
vn 0.9232 0.1488 0.3544
vn 0.9874 0.1582 -0.0040
vn 0.9201 0.1460 -0.3634
vn 0.5961 0.0926 -0.7976
vn -0.0162 -0.0014 -0.9999
vn -0.6104 -0.1019 -0.7855
vn -0.9230 -0.1514 -0.3538
vn -0.9698 -0.2438 0.0044
vn -0.9005 -0.2258 0.3717
vn -0.5802 -0.1440 0.8016
vn 0.0008 0.0088 1.0000
vn 0.5896 0.1475 0.7941
vn 0.9046 0.2246 0.3623
vn 0.9707 0.2404 -0.0043
vn 0.9014 0.2220 -0.3718
vn 0.5780 0.1409 -0.8038
vn -0.0178 -0.0005 -0.9998
vn -0.5918 -0.1506 -0.7919
vn -0.9037 -0.2284 -0.3621
vn -0.9436 -0.3309 0.0047
vn -0.8713 -0.3054 0.3841
vn -0.5534 -0.1925 0.8104
vn -0.0012 0.0090 1.0000
vn 0.5638 0.1957 0.8024
vn 0.8768 0.3028 0.3735
vn 0.9452 0.3264 -0.0046
vn 0.8732 0.3005 -0.3837
vn 0.5517 0.1893 -0.8123
vn -0.0197 -0.0003 -0.9998
vn -0.5653 -0.1990 -0.8005
vn -0.8749 -0.3078 -0.3739
vn -0.9062 -0.4229 0.0050
vn -0.8305 -0.3878 0.3999
vn -0.5184 -0.2405 0.8206
vn -0.0033 0.0085 1.0000
vn 0.5294 0.2436 0.8127
vn 0.8377 0.3841 0.3882
vn 0.9088 0.4172 -0.0049
vn 0.8337 0.3819 -0.3989
vn 0.5168 0.2372 -0.8226
vn -0.0218 -0.0008 -0.9998
vn -0.5308 -0.2469 -0.8107
vn -0.8346 -0.3899 -0.3892
vn -0.8540 -0.5203 0.0053
vn -0.7751 -0.4729 0.4189
vn -0.4747 -0.2878 0.8318
vn -0.0055 0.0071 1.0000
vn 0.4855 0.2907 0.8245
vn 0.7846 0.4683 0.4063
vn 0.8582 0.5134 -0.0052
vn 0.7799 0.4663 -0.4174
vn 0.4724 0.2844 -0.8343
vn -0.0240 -0.0023 -0.9997
vn -0.4878 -0.2941 -0.8219
vn -0.7799 -0.4750 -0.4077
vn -0.7825 -0.6227 0.0055
vn -0.7019 -0.5598 0.4403
vn -0.4220 -0.3342 0.8427
vn -0.0075 0.0045 1.0000
vn 0.4313 0.3363 0.8372
vn 0.7137 0.5549 0.4274
vn 0.7885 0.6150 -0.0055
vn 0.7082 0.5529 -0.4389
vn 0.4176 0.3299 -0.8467
vn -0.0262 -0.0048 -0.9996
vn -0.4357 -0.3405 -0.8332
vn -0.7075 -0.5618 -0.4287
vn -0.6858 -0.7278 0.0057
vn -0.6071 -0.6463 0.4623
vn -0.3592 -0.3792 0.8527
vn -0.0090 0.0006 1.0000
vn 0.3661 0.3789 0.8500
vn 0.6209 0.6414 0.4507
vn 0.6940 0.7199 -0.0057
vn 0.6145 0.6393 -0.4623
vn 0.3516 0.3724 -0.8589
vn -0.0275 -0.0087 -0.9996
vn -0.3735 -0.3857 -0.8436
vn -0.6136 -0.6484 -0.4507
vn -0.5584 -0.8296 0.0057
vn -0.4876 -0.7276 0.4826
vn -0.2851 -0.4219 0.8607
vn -0.0091 -0.0049 0.9999
vn 0.2893 0.4163 0.8620
vn 0.5024 0.7228 0.4744
vn 0.5681 0.8230 -0.0057
vn 0.4950 0.7204 -0.4858
vn 0.2740 0.4094 -0.8702
vn -0.0277 -0.0142 -0.9995
vn -0.3003 -0.4286 -0.8522
vn -0.4951 -0.7300 -0.4712
vn -0.3973 -0.9177 0.0056
vn -0.3425 -0.7968 0.4977
vn -0.1988 -0.4597 0.8655
vn -0.0067 -0.0118 0.9999
vn 0.2018 0.4452 0.8724
vn 0.3567 0.7917 0.4959
vn 0.4071 0.9134 -0.0056
vn 0.3482 0.7887 -0.5066
vn 0.1861 0.4379 -0.8795
vn -0.0251 -0.0211 -0.9995
vn -0.2143 -0.4667 -0.8581
vn -0.3510 -0.7998 -0.4870
vn -0.2070 -0.9783 0.0052
vn -0.1754 -0.8447 0.5057
vn -0.0999 -0.4875 0.8674
vn -0.0003 -0.0185 0.9998
vn 0.1068 0.4630 0.8799
vn 0.1875 0.8384 0.5117
vn 0.2143 0.9768 -0.0053
vn 0.1782 0.8346 -0.5213
vn 0.0904 0.4552 -0.8858
vn -0.0188 -0.0278 -0.9994
vn -0.1157 -0.4950 -0.8612
vn -0.1846 -0.8484 -0.4961
s 1
usemtl Material.001
f 53//1 51//2 50//3
f 50//3 111//4 109//5
f 109//5 107//6 105//7
f 105//7 103//8 101//9
f 101//9 99//10 97//11
f 97//11 95//12 93//13
f 93//13 91//14 89//15
f 89//15 87//16 85//17
f 85//17 83//18 81//19
f 81//19 79//20 77//21
f 77//21 75//22 73//23
f 73//23 71//24 69//25
f 69//25 67//26 65//27
f 65//27 63//28 61//29
f 61//29 59//30 57//31
f 57//31 55//32 53//1
f 53//1 50//3 109//5
f 109//5 105//7 101//9
f 101//9 97//11 93//13
f 93//13 89//15 85//17
f 85//17 81//19 77//21
f 77//21 73//23 69//25
f 69//25 65//27 61//29
f 61//29 57//31 53//1
f 53//1 109//5 101//9
f 101//9 93//13 85//17
f 85//17 77//21 69//25
f 69//25 61//29 53//1
f 53//1 101//9 85//17
f 85//17 69//25 53//1
f 112//33 49//34 52//35
f 52//35 54//36 56//37
f 56//37 58//38 60//39
f 60//39 62//40 64//41
f 64//41 66//42 68//43
f 68//43 70//44 72//45
f 72//45 74//46 76//47
f 76//47 78//48 80//49
f 80//49 82//50 84//51
f 84//51 86//52 88//53
f 88//53 90//54 92//55
f 92//55 94//56 96//57
f 96//57 98//58 100//59
f 100//59 102//60 104//61
f 104//61 106//62 108//63
f 108//63 110//64 112//33
f 112//33 52//35 56//37
f 56//37 60//39 64//41
f 64//41 68//43 72//45
f 72//45 76//47 80//49
f 80//49 84//51 88//53
f 88//53 92//55 96//57
f 96//57 100//59 104//61
f 104//61 108//63 112//33
f 112//33 56//37 64//41
f 64//41 72//45 80//49
f 80//49 88//53 96//57
f 96//57 104//61 112//33
f 112//33 64//41 80//49
f 80//49 96//57 112//33
f 1//65 2//65 3//65
f 1//65 3//65 4//65
f 5//66 6//66 7//66
f 5//66 7//66 8//66
f 9//67 10//67 11//67
f 9//67 11//67 12//67
f 13//68 14//68 15//68
f 13//68 15//68 16//68
f 17//69 18//69 19//69
f 17//69 19//69 20//69
f 21//70 22//70 23//70
f 21//70 23//70 24//70
f 25//65 26//65 27//65
f 25//65 27//65 28//65
f 29//66 30//66 31//66
f 29//66 31//66 32//66
f 33//67 34//67 35//67
f 33//67 35//67 36//67
f 37//68 38//68 39//68
f 37//68 39//68 40//68
f 41//69 42//69 43//69
f 41//69 43//69 44//69
f 45//70 46//70 47//70
f 45//70 47//70 48//70
f 49//34 50//3 51//2
f 49//34 51//2 52//35
f 52//35 51//2 53//1
f 52//35 53//1 54//36
f 54//36 53//1 55//32
f 54//36 55//32 56//37
f 56//37 55//32 57//31
f 56//37 57//31 58//38
f 58//38 57//31 59//30
f 58//38 59//30 60//39
f 60//39 59//30 61//29
f 60//39 61//29 62//40
f 62//40 61//29 63//28
f 62//40 63//28 64//41
f 64//41 63//28 65//27
f 64//41 65//27 66//42
f 66//42 65//27 67//26
f 66//42 67//26 68//43
f 68//43 67//26 69//25
f 68//43 69//25 70//44
f 70//44 69//25 71//24
f 70//44 71//24 72//45
f 72//45 71//24 73//23
f 72//45 73//23 74//46
f 74//46 73//23 75//22
f 74//46 75//22 76//47
f 76//47 75//22 77//21
f 76//47 77//21 78//48
f 78//48 77//21 79//20
f 78//48 79//20 80//49
f 80//49 79//20 81//19
f 80//49 81//19 82//50
f 82//50 81//19 83//18
f 82//50 83//18 84//51
f 84//51 83//18 85//17
f 84//51 85//17 86//52
f 86//52 85//17 87//16
f 86//52 87//16 88//53
f 88//53 87//16 89//15
f 88//53 89//15 90//54
f 90//54 89//15 91//14
f 90//54 91//14 92//55
f 92//55 91//14 93//13
f 92//55 93//13 94//56
f 94//56 93//13 95//12
f 94//56 95//12 96//57
f 96//57 95//12 97//11
f 96//57 97//11 98//58
f 98//58 97//11 99//10
f 98//58 99//10 100//59
f 100//59 99//10 101//9
f 100//59 101//9 102//60
f 102//60 101//9 103//8
f 102//60 103//8 104//61
f 104//61 103//8 105//7
f 104//61 105//7 106//62
f 106//62 105//7 107//6
f 106//62 107//6 108//63
f 108//63 107//6 109//5
f 108//63 109//5 110//64
f 110//64 109//5 111//4
f 110//64 111//4 112//33
f 112//33 111//4 50//3
f 112//33 50//3 49//34
f 113//67 114//71 115//72
f 113//67 115//72 116//73
f 116//73 115//72 117//74
f 116//73 117//74 118//75
f 118//75 117//74 119//76
f 118//75 119//76 120//77
f 120//77 119//76 121//78
f 120//77 121//78 122//79
f 122//79 121//78 123//80
f 122//79 123//80 124//81
f 124//81 123//80 125//82
f 124//81 125//82 126//65
f 126//65 125//82 127//83
f 126//65 127//83 128//84
f 128//84 127//83 129//85
f 128//84 129//85 130//86
f 130//86 129//85 131//87
f 130//86 131//87 132//88
f 132//88 131//87 133//89
f 132//88 133//89 134//90
f 134//90 133//89 135//91
f 134//90 135//91 136//92
f 136//92 135//91 114//71
f 136//92 114//71 113//67
f 114//71 137//93 138//94
f 114//71 138//94 115//72
f 115//72 138//94 139//95
f 115//72 139//95 117//74
f 117//74 139//95 140//96
f 117//74 140//96 119//76
f 119//76 140//96 141//97
f 119//76 141//97 121//78
f 121//78 141//97 142//98
f 121//78 142//98 123//80
f 123//80 142//98 143//99
f 123//80 143//99 125//82
f 125//82 143//99 144//100
f 125//82 144//100 127//83
f 127//83 144//100 145//101
f 127//83 145//101 129//85
f 129//85 145//101 146//102
f 129//85 146//102 131//87
f 131//87 146//102 147//103
f 131//87 147//103 133//89
f 133//89 147//103 148//104
f 133//89 148//104 135//91
f 135//91 148//104 137//93
f 135//91 137//93 114//71
f 137//93 149//105 150//106
f 137//93 150//106 138//94
f 138//94 150//106 151//107
f 138//94 151//107 139//95
f 139//95 151//107 152//108
f 139//95 152//108 140//96
f 140//96 152//108 153//109
f 140//96 153//109 141//97
f 141//97 153//109 154//110
f 141//97 154//110 142//98
f 142//98 154//110 155//111
f 142//98 155//111 143//99
f 143//99 155//111 156//112
f 143//99 156//112 144//100
f 144//100 156//112 157//113
f 144//100 157//113 145//101
f 145//101 157//113 158//114
f 145//101 158//114 146//102
f 146//102 158//114 159//115
f 146//102 159//115 147//103
f 147//103 159//115 160//116
f 147//103 160//116 148//104
f 148//104 160//116 149//105
f 148//104 149//105 137//93
f 149//105 161//117 162//118
f 149//105 162//118 150//106
f 150//106 162//118 163//119
f 150//106 163//119 151//107
f 151//107 163//119 164//120
f 151//107 164//120 152//108
f 152//108 164//120 165//121
f 152//108 165//121 153//109
f 153//109 165//121 166//122
f 153//109 166//122 154//110
f 154//110 166//122 167//123
f 154//110 167//123 155//111
f 155//111 167//123 168//124
f 155//111 168//124 156//112
f 156//112 168//124 169//125
f 156//112 169//125 157//113
f 157//113 169//125 170//126
f 157//113 170//126 158//114
f 158//114 170//126 171//127
f 158//114 171//127 159//115
f 159//115 171//127 172//128
f 159//115 172//128 160//116
f 160//116 172//128 161//117
f 160//116 161//117 149//105
f 161//117 173//129 174//130
f 161//117 174//130 162//118
f 162//118 174//130 175//131
f 162//118 175//131 163//119
f 163//119 175//131 176//132
f 163//119 176//132 164//120
f 164//120 176//132 177//133
f 164//120 177//133 165//121
f 165//121 177//133 178//134
f 165//121 178//134 166//122
f 166//122 178//134 179//135
f 166//122 179//135 167//123
f 167//123 179//135 180//136
f 167//123 180//136 168//124
f 168//124 180//136 181//137
f 168//124 181//137 169//125
f 169//125 181//137 182//138
f 169//125 182//138 170//126
f 170//126 182//138 183//139
f 170//126 183//139 171//127
f 171//127 183//139 184//140
f 171//127 184//140 172//128
f 172//128 184//140 173//129
f 172//128 173//129 161//117
f 173//129 185//141 186//142
f 173//129 186//142 174//130
f 174//130 186//142 187//143
f 174//130 187//143 175//131
f 175//131 187//143 188//144
f 175//131 188//144 176//132
f 176//132 188//144 189//145
f 176//132 189//145 177//133
f 177//133 189//145 190//146
f 177//133 190//146 178//134
f 178//134 190//146 191//147
f 178//134 191//147 179//135
f 179//135 191//147 192//148
f 179//135 192//148 180//136
f 180//136 192//148 193//149
f 180//136 193//149 181//137
f 181//137 193//149 194//150
f 181//137 194//150 182//138
f 182//138 194//150 195//151
f 182//138 195//151 183//139
f 183//139 195//151 196//152
f 183//139 196//152 184//140
f 184//140 196//152 185//141
f 184//140 185//141 173//129
f 185//141 197//153 198//154
f 185//141 198//154 186//142
f 186//142 198//154 199//155
f 186//142 199//155 187//143
f 187//143 199//155 200//156
f 187//143 200//156 188//144
f 188//144 200//156 201//157
f 188//144 201//157 189//145
f 189//145 201//157 202//158
f 189//145 202//158 190//146
f 190//146 202//158 203//159
f 190//146 203//159 191//147
f 191//147 203//159 204//160
f 191//147 204//160 192//148
f 192//148 204//160 205//161
f 192//148 205//161 193//149
f 193//149 205//161 206//162
f 193//149 206//162 194//150
f 194//150 206//162 207//163
f 194//150 207//163 195//151
f 195//151 207//163 208//164
f 195//151 208//164 196//152
f 196//152 208//164 197//153
f 196//152 197//153 185//141
f 197//153 209//165 210//166
f 197//153 210//166 198//154
f 198//154 210//166 211//167
f 198//154 211//167 199//155
f 199//155 211//167 212//168
f 199//155 212//168 200//156
f 200//156 212//168 213//169
f 200//156 213//169 201//157
f 201//157 213//169 214//170
f 201//157 214//170 202//158
f 202//158 214//170 215//171
f 202//158 215//171 203//159
f 203//159 215//171 216//172
f 203//159 216//172 204//160
f 204//160 216//172 217//173
f 204//160 217//173 205//161
f 205//161 217//173 218//174
f 205//161 218//174 206//162
f 206//162 218//174 219//175
f 206//162 219//175 207//163
f 207//163 219//175 220//176
f 207//163 220//176 208//164
f 208//164 220//176 209//165
f 208//164 209//165 197//153
f 209//165 221//177 222//178
f 209//165 222//178 210//166
f 210//166 222//178 223//179
f 210//166 223//179 211//167
f 211//167 223//179 224//180
f 211//167 224//180 212//168
f 212//168 224//180 225//181
f 212//168 225//181 213//169
f 213//169 225//181 226//182
f 213//169 226//182 214//170
f 214//170 226//182 227//183
f 214//170 227//183 215//171
f 215//171 227//183 228//184
f 215//171 228//184 216//172
f 216//172 228//184 229//185
f 216//172 229//185 217//173
f 217//173 229//185 230//186
f 217//173 230//186 218//174
f 218//174 230//186 231//187
f 218//174 231//187 219//175
f 219//175 231//187 232//188
f 219//175 232//188 220//176
f 220//176 232//188 221//177
f 220//176 221//177 209//165
f 221//177 233//189 234//190
f 221//177 234//190 222//178
f 222//178 234//190 235//191
f 222//178 235//191 223//179
f 223//179 235//191 236//192
f 223//179 236//192 224//180
f 224//180 236//192 237//193
f 224//180 237//193 225//181
f 225//181 237//193 238//194
f 225//181 238//194 226//182
f 226//182 238//194 239//195
f 226//182 239//195 227//183
f 227//183 239//195 240//196
f 227//183 240//196 228//184
f 228//184 240//196 241//197
f 228//184 241//197 229//185
f 229//185 241//197 242//198
f 229//185 242//198 230//186
f 230//186 242//198 243//199
f 230//186 243//199 231//187
f 231//187 243//199 244//200
f 231//187 244//200 232//188
f 232//188 244//200 233//189
f 232//188 233//189 221//177
f 233//189 245//201 246//202
f 233//189 246//202 234//190
f 234//190 246//202 247//203
f 234//190 247//203 235//191
f 235//191 247//203 248//204
f 235//191 248//204 236//192
f 236//192 248//204 249//205
f 236//192 249//205 237//193
f 237//193 249//205 250//206
f 237//193 250//206 238//194
f 238//194 250//206 251//207
f 238//194 251//207 239//195
f 239//195 251//207 252//208
f 239//195 252//208 240//196
f 240//196 252//208 253//209
f 240//196 253//209 241//197
f 241//197 253//209 254//210
f 241//197 254//210 242//198
f 242//198 254//210 255//211
f 242//198 255//211 243//199
f 243//199 255//211 256//212
f 243//199 256//212 244//200
f 244//200 256//212 245//201
f 244//200 245//201 233//189
f 245//201 257//70 258//213
f 245//201 258//213 246//202
f 246//202 258//213 259//214
f 246//202 259//214 247//203
f 247//203 259//214 260//215
f 247//203 260//215 248//204
f 248//204 260//215 261//216
f 248//204 261//216 249//205
f 249//205 261//216 262//217
f 249//205 262//217 250//206
f 250//206 262//217 263//69
f 250//206 263//69 251//207
f 251//207 263//69 264//218
f 251//207 264//218 252//208
f 252//208 264//218 265//219
f 252//208 265//219 253//209
f 253//209 265//219 266//220
f 253//209 266//220 254//210
f 254//210 266//220 267//221
f 254//210 267//221 255//211
f 255//211 267//221 268//222
f 255//211 268//222 256//212
f 256//212 268//222 257//70
f 256//212 257//70 245//201
f 257//70 269//223 270//224
f 257//70 270//224 258//213
f 258//213 270//224 271//225
f 258//213 271//225 259//214
f 259//214 271//225 272//226
f 259//214 272//226 260//215
f 260//215 272//226 273//227
f 260//215 273//227 261//216
f 261//216 273//227 274//228
f 261//216 274//228 262//217
f 262//217 274//228 275//229
f 262//217 275//229 263//69
f 263//69 275//229 276//230
f 263//69 276//230 264//218
f 264//218 276//230 277//231
f 264//218 277//231 265//219
f 265//219 277//231 278//232
f 265//219 278//232 266//220
f 266//220 278//232 279//233
f 266//220 279//233 267//221
f 267//221 279//233 280//234
f 267//221 280//234 268//222
f 268//222 280//234 269//223
f 268//222 269//223 257//70
f 269//223 281//235 282//236
f 269//223 282//236 270//224
f 270//224 282//236 283//237
f 270//224 283//237 271//225
f 271//225 283//237 284//238
f 271//225 284//238 272//226
f 272//226 284//238 285//239
f 272//226 285//239 273//227
f 273//227 285//239 286//240
f 273//227 286//240 274//228
f 274//228 286//240 287//241
f 274//228 287//241 275//229
f 275//229 287//241 288//242
f 275//229 288//242 276//230
f 276//230 288//242 289//243
f 276//230 289//243 277//231
f 277//231 289//243 290//244
f 277//231 290//244 278//232
f 278//232 290//244 291//245
f 278//232 291//245 279//233
f 279//233 291//245 292//246
f 279//233 292//246 280//234
f 280//234 292//246 281//235
f 280//234 281//235 269//223
f 281//235 293//247 294//248
f 281//235 294//248 282//236
f 282//236 294//248 295//249
f 282//236 295//249 283//237
f 283//237 295//249 296//250
f 283//237 296//250 284//238
f 284//238 296//250 297//251
f 284//238 297//251 285//239
f 285//239 297//251 298//252
f 285//239 298//252 286//240
f 286//240 298//252 299//253
f 286//240 299//253 287//241
f 287//241 299//253 300//254
f 287//241 300//254 288//242
f 288//242 300//254 301//255
f 288//242 301//255 289//243
f 289//243 301//255 302//256
f 289//243 302//256 290//244
f 290//244 302//256 303//257
f 290//244 303//257 291//245
f 291//245 303//257 304//258
f 291//245 304//258 292//246
f 292//246 304//258 293//247
f 292//246 293//247 281//235
f 293//247 305//259 306//260
f 293//247 306//260 294//248
f 294//248 306//260 307//261
f 294//248 307//261 295//249
f 295//249 307//261 308//262
f 295//249 308//262 296//250
f 296//250 308//262 309//263
f 296//250 309//263 297//251
f 297//251 309//263 310//264
f 297//251 310//264 298//252
f 298//252 310//264 311//265
f 298//252 311//265 299//253
f 299//253 311//265 312//266
f 299//253 312//266 300//254
f 300//254 312//266 313//267
f 300//254 313//267 301//255
f 301//255 313//267 314//268
f 301//255 314//268 302//256
f 302//256 314//268 315//269
f 302//256 315//269 303//257
f 303//257 315//269 316//270
f 303//257 316//270 304//258
f 304//258 316//270 305//259
f 304//258 305//259 293//247
f 305//259 317//271 318//272
f 305//259 318//272 306//260
f 306//260 318//272 319//273
f 306//260 319//273 307//261
f 307//261 319//273 320//274
f 307//261 320//274 308//262
f 308//262 320//274 321//275
f 308//262 321//275 309//263
f 309//263 321//275 322//276
f 309//263 322//276 310//264
f 310//264 322//276 323//277
f 310//264 323//277 311//265
f 311//265 323//277 324//278
f 311//265 324//278 312//266
f 312//266 324//278 325//279
f 312//266 325//279 313//267
f 313//267 325//279 326//280
f 313//267 326//280 314//268
f 314//268 326//280 327//281
f 314//268 327//281 315//269
f 315//269 327//281 328//282
f 315//269 328//282 316//270
f 316//270 328//282 317//271
f 316//270 317//271 305//259
f 317//271 329//283 330//284
f 317//271 330//284 318//272
f 318//272 330//284 331//285
f 318//272 331//285 319//273
f 319//273 331//285 332//286
f 319//273 332//286 320//274
f 320//274 332//286 333//287
f 320//274 333//287 321//275
f 321//275 333//287 334//288
f 321//275 334//288 322//276
f 322//276 334//288 335//289
f 322//276 335//289 323//277
f 323//277 335//289 336//290
f 323//277 336//290 324//278
f 324//278 336//290 337//291
f 324//278 337//291 325//279
f 325//279 337//291 338//292
f 325//279 338//292 326//280
f 326//280 338//292 339//293
f 326//280 339//293 327//281
f 327//281 339//293 340//294
f 327//281 340//294 328//282
f 328//282 340//294 329//283
f 328//282 329//283 317//271
f 329//283 341//295 342//296
f 329//283 342//296 330//284
f 330//284 342//296 343//297
f 330//284 343//297 331//285
f 331//285 343//297 344//298
f 331//285 344//298 332//286
f 332//286 344//298 345//299
f 332//286 345//299 333//287
f 333//287 345//299 346//300
f 333//287 346//300 334//288
f 334//288 346//300 347//301
f 334//288 347//301 335//289
f 335//289 347//301 348//302
f 335//289 348//302 336//290
f 336//290 348//302 349//303
f 336//290 349//303 337//291
f 337//291 349//303 350//304
f 337//291 350//304 338//292
f 338//292 350//304 351//305
f 338//292 351//305 339//293
f 339//293 351//305 352//306
f 339//293 352//306 340//294
f 340//294 352//306 341//295
f 340//294 341//295 329//283
f 341//295 353//307 354//308
f 341//295 354//308 342//296
f 342//296 354//308 355//309
f 342//296 355//309 343//297
f 343//297 355//309 356//310
f 343//297 356//310 344//298
f 344//298 356//310 357//311
f 344//298 357//311 345//299
f 345//299 357//311 358//312
f 345//299 358//312 346//300
f 346//300 358//312 359//313
f 346//300 359//313 347//301
f 347//301 359//313 360//314
f 347//301 360//314 348//302
f 348//302 360//314 361//315
f 348//302 361//315 349//303
f 349//303 361//315 362//316
f 349//303 362//316 350//304
f 350//304 362//316 363//317
f 350//304 363//317 351//305
f 351//305 363//317 364//318
f 351//305 364//318 352//306
f 352//306 364//318 353//307
f 352//306 353//307 341//295
f 353//307 365//319 366//320
f 353//307 366//320 354//308
f 354//308 366//320 367//321
f 354//308 367//321 355//309
f 355//309 367//321 368//322
f 355//309 368//322 356//310
f 356//310 368//322 369//323
f 356//310 369//323 357//311
f 357//311 369//323 370//324
f 357//311 370//324 358//312
f 358//312 370//324 371//325
f 358//312 371//325 359//313
f 359//313 371//325 372//326
f 359//313 372//326 360//314
f 360//314 372//326 373//327
f 360//314 373//327 361//315
f 361//315 373//327 374//328
f 361//315 374//328 362//316
f 362//316 374//328 375//329
f 362//316 375//329 363//317
f 363//317 375//329 376//330
f 363//317 376//330 364//318
f 364//318 376//330 365//319
f 364//318 365//319 353//307
f 365//319 377//331 378//332
f 365//319 378//332 366//320
f 366//320 378//332 379//333
f 366//320 379//333 367//321
f 367//321 379//333 380//334
f 367//321 380//334 368//322
f 368//322 380//334 381//335
f 368//322 381//335 369//323
f 369//323 381//335 382//336
f 369//323 382//336 370//324
f 370//324 382//336 383//337
f 370//324 383//337 371//325
f 371//325 383//337 384//338
f 371//325 384//338 372//326
f 372//326 384//338 385//339
f 372//326 385//339 373//327
f 373//327 385//339 386//340
f 373//327 386//340 374//328
f 374//328 386//340 387//341
f 374//328 387//341 375//329
f 375//329 387//341 388//342
f 375//329 388//342 376//330
f 376//330 388//342 377//331
f 376//330 377//331 365//319
f 377//331 389//343 390//344
f 377//331 390//344 378//332
f 378//332 390//344 391//345
f 378//332 391//345 379//333
f 379//333 391//345 392//346
f 379//333 392//346 380//334
f 380//334 392//346 393//347
f 380//334 393//347 381//335
f 381//335 393//347 394//348
f 381//335 394//348 382//336
f 382//336 394//348 395//349
f 382//336 395//349 383//337
f 383//337 395//349 396//350
f 383//337 396//350 384//338
f 384//338 396//350 397//351
f 384//338 397//351 385//339
f 385//339 397//351 398//352
f 385//339 398//352 386//340
f 386//340 398//352 399//353
f 386//340 399//353 387//341
f 387//341 399//353 400//354
f 387//341 400//354 388//342
f 388//342 400//354 389//343
f 388//342 389//343 377//331
f 389//343 401//65 402//355
f 389//343 402//355 390//344
f 390//344 402//355 403//356
f 390//344 403//356 391//345
f 391//345 403//356 404//357
f 391//345 404//357 392//346
f 392//346 404//357 405//358
f 392//346 405//358 393//347
f 393//347 405//358 406//359
f 393//347 406//359 394//348
f 394//348 406//359 407//67
f 394//348 407//67 395//349
f 395//349 407//67 408//360
f 395//349 408//360 396//350
f 396//350 408//360 409//361
f 396//350 409//361 397//351
f 397//351 409//361 410//362
f 397//351 410//362 398//352
f 398//352 410//362 411//363
f 398//352 411//363 399//353
f 399//353 411//363 412//364
f 399//353 412//364 400//354
f 400//354 412//364 401//65
f 400//354 401//65 389//343
f 401//65 413//365 414//366
f 401//65 414//366 402//355
f 402//355 414//366 415//367
f 402//355 415//367 403//356
f 403//356 415//367 416//368
f 403//356 416//368 404//357
f 404//357 416//368 417//369
f 404//357 417//369 405//358
f 405//358 417//369 418//370
f 405//358 418//370 406//359
f 406//359 418//370 419//371
f 406//359 419//371 407//67
f 407//67 419//371 420//372
f 407//67 420//372 408//360
f 408//360 420//372 421//373
f 408//360 421//373 409//361
f 409//361 421//373 422//374
f 409//361 422//374 410//362
f 410//362 422//374 423//375
f 410//362 423//375 411//363
f 411//363 423//375 424//376
f 411//363 424//376 412//364
f 412//364 424//376 413//365
f 412//364 413//365 401//65
f 413//365 425//377 426//378
f 413//365 426//378 414//366
f 414//366 426//378 427//379
f 414//366 427//379 415//367
f 415//367 427//379 428//380
f 415//367 428//380 416//368
f 416//368 428//380 429//381
f 416//368 429//381 417//369
f 417//369 429//381 430//382
f 417//369 430//382 418//370
f 418//370 430//382 431//383
f 418//370 431//383 419//371
f 419//371 431//383 432//384
f 419//371 432//384 420//372
f 420//372 432//384 433//385
f 420//372 433//385 421//373
f 421//373 433//385 434//386
f 421//373 434//386 422//374
f 422//374 434//386 435//387
f 422//374 435//387 423//375
f 423//375 435//387 436//388
f 423//375 436//388 424//376
f 424//376 436//388 425//377
f 424//376 425//377 413//365
f 425//377 437//389 438//390
f 425//377 438//390 426//378
f 426//378 438//390 439//391
f 426//378 439//391 427//379
f 427//379 439//391 440//392
f 427//379 440//392 428//380
f 428//380 440//392 441//393
f 428//380 441//393 429//381
f 429//381 441//393 442//394
f 429//381 442//394 430//382
f 430//382 442//394 443//395
f 430//382 443//395 431//383
f 431//383 443//395 444//396
f 431//383 444//396 432//384
f 432//384 444//396 445//397
f 432//384 445//397 433//385
f 433//385 445//397 446//398
f 433//385 446//398 434//386
f 434//386 446//398 447//399
f 434//386 447//399 435//387
f 435//387 447//399 448//400
f 435//387 448//400 436//388
f 436//388 448//400 437//389
f 436//388 437//389 425//377
f 437//389 449//401 450//402
f 437//389 450//402 438//390
f 438//390 450//402 451//403
f 438//390 451//403 439//391
f 439//391 451//403 452//404
f 439//391 452//404 440//392
f 440//392 452//404 453//405
f 440//392 453//405 441//393
f 441//393 453//405 454//406
f 441//393 454//406 442//394
f 442//394 454//406 455//407
f 442//394 455//407 443//395
f 443//395 455//407 456//408
f 443//395 456//408 444//396
f 444//396 456//408 457//409
f 444//396 457//409 445//397
f 445//397 457//409 458//410
f 445//397 458//410 446//398
f 446//398 458//410 459//411
f 446//398 459//411 447//399
f 447//399 459//411 460//412
f 447//399 460//412 448//400
f 448//400 460//412 449//401
f 448//400 449//401 437//389
f 449//401 461//413 462//414
f 449//401 462//414 450//402
f 450//402 462//414 463//415
f 450//402 463//415 451//403
f 451//403 463//415 464//416
f 451//403 464//416 452//404
f 452//404 464//416 465//417
f 452//404 465//417 453//405
f 453//405 465//417 466//418
f 453//405 466//418 454//406
f 454//406 466//418 467//419
f 454//406 467//419 455//407
f 455//407 467//419 468//420
f 455//407 468//420 456//408
f 456//408 468//420 469//421
f 456//408 469//421 457//409
f 457//409 469//421 470//422
f 457//409 470//422 458//410
f 458//410 470//422 471//423
f 458//410 471//423 459//411
f 459//411 471//423 472//424
f 459//411 472//424 460//412
f 460//412 472//424 461//413
f 460//412 461//413 449//401
f 461//413 473//425 474//426
f 461//413 474//426 462//414
f 462//414 474//426 475//427
f 462//414 475//427 463//415
f 463//415 475//427 476//428
f 463//415 476//428 464//416
f 464//416 476//428 477//429
f 464//416 477//429 465//417
f 465//417 477//429 478//430
f 465//417 478//430 466//418
f 466//418 478//430 479//431
f 466//418 479//431 467//419
f 467//419 479//431 480//432
f 467//419 480//432 468//420
f 468//420 480//432 481//433
f 468//420 481//433 469//421
f 469//421 481//433 482//434
f 469//421 482//434 470//422
f 470//422 482//434 483//435
f 470//422 483//435 471//423
f 471//423 483//435 484//436
f 471//423 484//436 472//424
f 472//424 484//436 473//425
f 472//424 473//425 461//413
f 473//425 485//437 486//438
f 473//425 486//438 474//426
f 474//426 486//438 487//439
f 474//426 487//439 475//427
f 475//427 487//439 488//440
f 475//427 488//440 476//428
f 476//428 488//440 489//441
f 476//428 489//441 477//429
f 477//429 489//441 490//442
f 477//429 490//442 478//430
f 478//430 490//442 491//443
f 478//430 491//443 479//431
f 479//431 491//443 492//444
f 479//431 492//444 480//432
f 480//432 492//444 493//445
f 480//432 493//445 481//433
f 481//433 493//445 494//446
f 481//433 494//446 482//434
f 482//434 494//446 495//447
f 482//434 495//447 483//435
f 483//435 495//447 496//448
f 483//435 496//448 484//436
f 484//436 496//448 485//437
f 484//436 485//437 473//425
f 485//437 497//449 498//450
f 485//437 498//450 486//438
f 486//438 498//450 499//451
f 486//438 499//451 487//439
f 487//439 499//451 500//452
f 487//439 500//452 488//440
f 488//440 500//452 501//453
f 488//440 501//453 489//441
f 489//441 501//453 502//454
f 489//441 502//454 490//442
f 490//442 502//454 503//455
f 490//442 503//455 491//443
f 491//443 503//455 504//456
f 491//443 504//456 492//444
f 492//444 504//456 505//457
f 492//444 505//457 493//445
f 493//445 505//457 506//458
f 493//445 506//458 494//446
f 494//446 506//458 507//459
f 494//446 507//459 495//447
f 495//447 507//459 508//460
f 495//447 508//460 496//448
f 496//448 508//460 497//449
f 496//448 497//449 485//437
f 497//449 509//461 510//462
f 497//449 510//462 498//450
f 498//450 510//462 511//463
f 498//450 511//463 499//451
f 499//451 511//463 512//464
f 499//451 512//464 500//452
f 500//452 512//464 513//465
f 500//452 513//465 501//453
f 501//453 513//465 514//466
f 501//453 514//466 502//454
f 502//454 514//466 515//467
f 502//454 515//467 503//455
f 503//455 515//467 516//468
f 503//455 516//468 504//456
f 504//456 516//468 517//469
f 504//456 517//469 505//457
f 505//457 517//469 518//470
f 505//457 518//470 506//458
f 506//458 518//470 519//471
f 506//458 519//471 507//459
f 507//459 519//471 520//472
f 507//459 520//472 508//460
f 508//460 520//472 509//461
f 508//460 509//461 497//449
f 509//461 521//473 522//474
f 509//461 522//474 510//462
f 510//462 522//474 523//475
f 510//462 523//475 511//463
f 511//463 523//475 524//476
f 511//463 524//476 512//464
f 512//464 524//476 525//477
f 512//464 525//477 513//465
f 513//465 525//477 526//478
f 513//465 526//478 514//466
f 514//466 526//478 527//479
f 514//466 527//479 515//467
f 515//467 527//479 528//480
f 515//467 528//480 516//468
f 516//468 528//480 529//481
f 516//468 529//481 517//469
f 517//469 529//481 530//482
f 517//469 530//482 518//470
f 518//470 530//482 531//483
f 518//470 531//483 519//471
f 519//471 531//483 532//484
f 519//471 532//484 520//472
f 520//472 532//484 521//473
f 520//472 521//473 509//461
f 521//473 533//485 534//486
f 521//473 534//486 522//474
f 522//474 534//486 535//487
f 522//474 535//487 523//475
f 523//475 535//487 536//488
f 523//475 536//488 524//476
f 524//476 536//488 537//489
f 524//476 537//489 525//477
f 525//477 537//489 538//490
f 525//477 538//490 526//478
f 526//478 538//490 539//491
f 526//478 539//491 527//479
f 527//479 539//491 540//492
f 527//479 540//492 528//480
f 528//480 540//492 541//493
f 528//480 541//493 529//481
f 529//481 541//493 542//494
f 529//481 542//494 530//482
f 530//482 542//494 543//495
f 530//482 543//495 531//483
f 531//483 543//495 544//496
f 531//483 544//496 532//484
f 532//484 544//496 533//485
f 532//484 533//485 521//473
f 533//485 545//69 546//497
f 533//485 546//497 534//486
f 534//486 546//497 547//498
f 534//486 547//498 535//487
f 535//487 547//498 548//499
f 535//487 548//499 536//488
f 536//488 548//499 549//500
f 536//488 549//500 537//489
f 537//489 549//500 550//501
f 537//489 550//501 538//490
f 538//490 550//501 551//70
f 538//490 551//70 539//491
f 539//491 551//70 552//502
f 539//491 552//502 540//492
f 540//492 552//502 553//503
f 540//492 553//503 541//493
f 541//493 553//503 554//504
f 541//493 554//504 542//494
f 542//494 554//504 555//505
f 542//494 555//505 543//495
f 543//495 555//505 556//506
f 543//495 556//506 544//496
f 544//496 556//506 545//69
f 544//496 545//69 533//485
f 545//69 557//507 558//508
f 545//69 558//508 546//497
f 546//497 558//508 559//509
f 546//497 559//509 547//498
f 547//498 559//509 560//510
f 547//498 560//510 548//499
f 548//499 560//510 561//511
f 548//499 561//511 549//500
f 549//500 561//511 562//512
f 549//500 562//512 550//501
f 550//501 562//512 563//513
f 550//501 563//513 551//70
f 551//70 563//513 564//514
f 551//70 564//514 552//502
f 552//502 564//514 565//515
f 552//502 565//515 553//503
f 553//503 565//515 566//516
f 553//503 566//516 554//504
f 554//504 566//516 567//517
f 554//504 567//517 555//505
f 555//505 567//517 568//518
f 555//505 568//518 556//506
f 556//506 568//518 557//507
f 556//506 557//507 545//69
f 557//507 569//519 570//520
f 557//507 570//520 558//508
f 558//508 570//520 571//521
f 558//508 571//521 559//509
f 559//509 571//521 572//522
f 559//509 572//522 560//510
f 560//510 572//522 573//523
f 560//510 573//523 561//511
f 561//511 573//523 574//524
f 561//511 574//524 562//512
f 562//512 574//524 575//525
f 562//512 575//525 563//513
f 563//513 575//525 576//526
f 563//513 576//526 564//514
f 564//514 576//526 577//527
f 564//514 577//527 565//515
f 565//515 577//527 578//528
f 565//515 578//528 566//516
f 566//516 578//528 579//529
f 566//516 579//529 567//517
f 567//517 579//529 580//530
f 567//517 580//530 568//518
f 568//518 580//530 569//519
f 568//518 569//519 557//507
f 569//519 581//531 582//532
f 569//519 582//532 570//520
f 570//520 582//532 583//533
f 570//520 583//533 571//521
f 571//521 583//533 584//534
f 571//521 584//534 572//522
f 572//522 584//534 585//535
f 572//522 585//535 573//523
f 573//523 585//535 586//536
f 573//523 586//536 574//524
f 574//524 586//536 587//537
f 574//524 587//537 575//525
f 575//525 587//537 588//538
f 575//525 588//538 576//526
f 576//526 588//538 589//539
f 576//526 589//539 577//527
f 577//527 589//539 590//540
f 577//527 590//540 578//528
f 578//528 590//540 591//541
f 578//528 591//541 579//529
f 579//529 591//541 592//542
f 579//529 592//542 580//530
f 580//530 592//542 581//531
f 580//530 581//531 569//519
f 581//531 593//543 594//544
f 581//531 594//544 582//532
f 582//532 594//544 595//545
f 582//532 595//545 583//533
f 583//533 595//545 596//546
f 583//533 596//546 584//534
f 584//534 596//546 597//547
f 584//534 597//547 585//535
f 585//535 597//547 598//548
f 585//535 598//548 586//536
f 586//536 598//548 599//549
f 586//536 599//549 587//537
f 587//537 599//549 600//550
f 587//537 600//550 588//538
f 588//538 600//550 601//551
f 588//538 601//551 589//539
f 589//539 601//551 602//552
f 589//539 602//552 590//540
f 590//540 602//552 603//553
f 590//540 603//553 591//541
f 591//541 603//553 604//554
f 591//541 604//554 592//542
f 592//542 604//554 593//543
f 592//542 593//543 581//531
f 593//543 605//555 606//556
f 593//543 606//556 594//544
f 594//544 606//556 607//557
f 594//544 607//557 595//545
f 595//545 607//557 608//558
f 595//545 608//558 596//546
f 596//546 608//558 609//559
f 596//546 609//559 597//547
f 597//547 609//559 610//560
f 597//547 610//560 598//548
f 598//548 610//560 611//561
f 598//548 611//561 599//549
f 599//549 611//561 612//562
f 599//549 612//562 600//550
f 600//550 612//562 613//563
f 600//550 613//563 601//551
f 601//551 613//563 614//564
f 601//551 614//564 602//552
f 602//552 614//564 615//565
f 602//552 615//565 603//553
f 603//553 615//565 616//566
f 603//553 616//566 604//554
f 604//554 616//566 605//555
f 604//554 605//555 593//543
f 605//555 617//567 618//568
f 605//555 618//568 606//556
f 606//556 618//568 619//569
f 606//556 619//569 607//557
f 607//557 619//569 620//570
f 607//557 620//570 608//558
f 608//558 620//570 621//571
f 608//558 621//571 609//559
f 609//559 621//571 622//572
f 609//559 622//572 610//560
f 610//560 622//572 623//573
f 610//560 623//573 611//561
f 611//561 623//573 624//574
f 611//561 624//574 612//562
f 612//562 624//574 625//575
f 612//562 625//575 613//563
f 613//563 625//575 626//576
f 613//563 626//576 614//564
f 614//564 626//576 627//577
f 614//564 627//577 615//565
f 615//565 627//577 628//578
f 615//565 628//578 616//566
f 616//566 628//578 617//567
f 616//566 617//567 605//555
f 617//567 629//579 630//580
f 617//567 630//580 618//568
f 618//568 630//580 631//581
f 618//568 631//581 619//569
f 619//569 631//581 632//582
f 619//569 632//582 620//570
f 620//570 632//582 633//583
f 620//570 633//583 621//571
f 621//571 633//583 634//584
f 621//571 634//584 622//572
f 622//572 634//584 635//585
f 622//572 635//585 623//573
f 623//573 635//585 636//586
f 623//573 636//586 624//574
f 624//574 636//586 637//587
f 624//574 637//587 625//575
f 625//575 637//587 638//588
f 625//575 638//588 626//576
f 626//576 638//588 639//589
f 626//576 639//589 627//577
f 627//577 639//589 640//590
f 627//577 640//590 628//578
f 628//578 640//590 629//579
f 628//578 629//579 617//567
f 629//579 641//591 642//592
f 629//579 642//592 630//580
f 630//580 642//592 643//593
f 630//580 643//593 631//581
f 631//581 643//593 644//594
f 631//581 644//594 632//582
f 632//582 644//594 645//595
f 632//582 645//595 633//583
f 633//583 645//595 646//596
f 633//583 646//596 634//584
f 634//584 646//596 647//597
f 634//584 647//597 635//585
f 635//585 647//597 648//598
f 635//585 648//598 636//586
f 636//586 648//598 649//599
f 636//586 649//599 637//587
f 637//587 649//599 650//600
f 637//587 650//600 638//588
f 638//588 650//600 651//601
f 638//588 651//601 639//589
f 639//589 651//601 652//602
f 639//589 652//602 640//590
f 640//590 652//602 641//591
f 640//590 641//591 629//579
f 641//591 653//603 654//604
f 641//591 654//604 642//592
f 642//592 654//604 655//605
f 642//592 655//605 643//593
f 643//593 655//605 656//606
f 643//593 656//606 644//594
f 644//594 656//606 657//607
f 644//594 657//607 645//595
f 645//595 657//607 658//608
f 645//595 658//608 646//596
f 646//596 658//608 659//609
f 646//596 659//609 647//597
f 647//597 659//609 660//610
f 647//597 660//610 648//598
f 648//598 660//610 661//611
f 648//598 661//611 649//599
f 649//599 661//611 662//612
f 649//599 662//612 650//600
f 650//600 662//612 663//613
f 650//600 663//613 651//601
f 651//601 663//613 664//614
f 651//601 664//614 652//602
f 652//602 664//614 653//603
f 652//602 653//603 641//591
f 653//603 665//615 666//616
f 653//603 666//616 654//604
f 654//604 666//616 667//617
f 654//604 667//617 655//605
f 655//605 667//617 668//618
f 655//605 668//618 656//606
f 656//606 668//618 669//619
f 656//606 669//619 657//607
f 657//607 669//619 670//620
f 657//607 670//620 658//608
f 658//608 670//620 671//621
f 658//608 671//621 659//609
f 659//609 671//621 672//622
f 659//609 672//622 660//610
f 660//610 672//622 673//623
f 660//610 673//623 661//611
f 661//611 673//623 674//624
f 661//611 674//624 662//612
f 662//612 674//624 675//625
f 662//612 675//625 663//613
f 663//613 675//625 676//626
f 663//613 676//626 664//614
f 664//614 676//626 665//615
f 664//614 665//615 653//603
f 665//615 677//627 678//628
f 665//615 678//628 666//616
f 666//616 678//628 679//629
f 666//616 679//629 667//617
f 667//617 679//629 680//630
f 667//617 680//630 668//618
f 668//618 680//630 681//631
f 668//618 681//631 669//619
f 669//619 681//631 682//632
f 669//619 682//632 670//620
f 670//620 682//632 683//633
f 670//620 683//633 671//621
f 671//621 683//633 684//634
f 671//621 684//634 672//622
f 672//622 684//634 685//635
f 672//622 685//635 673//623
f 673//623 685//635 686//636
f 673//623 686//636 674//624
f 674//624 686//636 687//637
f 674//624 687//637 675//625
f 675//625 687//637 688//638
f 675//625 688//638 676//626
f 676//626 688//638 677//627
f 676//626 677//627 665//615
f 677//627 113//67 116//73
f 677//627 116//73 678//628
f 678//628 116//73 118//75
f 678//628 118//75 679//629
f 679//629 118//75 120//77
f 679//629 120//77 680//630
f 680//630 120//77 122//79
f 680//630 122//79 681//631
f 681//631 122//79 124//81
f 681//631 124//81 682//632
f 682//632 124//81 126//65
f 682//632 126//65 683//633
f 683//633 126//65 128//84
f 683//633 128//84 684//634
f 684//634 128//84 130//86
f 684//634 130//86 685//635
f 685//635 130//86 132//88
f 685//635 132//88 686//636
f 686//636 132//88 134//90
f 686//636 134//90 687//637
f 687//637 134//90 136//92
f 687//637 136//92 688//638
f 688//638 136//92 113//67
f 688//638 113//67 677//627
f 689//65 690//65 691//65
f 689//65 691//65 692//65
f 693//66 694//66 695//66
f 693//66 695//66 696//66
f 697//67 698//67 699//67
f 697//67 699//67 700//67
f 701//68 702//68 703//68
f 701//68 703//68 704//68
f 705//69 706//69 707//69
f 705//69 707//69 708//69
f 709//70 710//70 711//70
f 709//70 711//70 712//70
